<svg xmlns="http://www.w3.org/2000/svg" width="32" height="32" viewBox="0 0 32 32">
    <path transform="translate(4,4)" fill="white" d="M10.47,10.2025 C10.7825,9.735 11.205,9.5 11.73,9.5 C12.27,9.5 12.7,9.735 13.02,10.2025 C13.34,10.6725 13.5,11.3075 13.5,12.11 C13.5,12.92 13.34,13.5625 13.0225,14.04 C12.705,14.5125 12.28,14.75 11.75,14.75 C11.21,14.75 10.7825,14.515 10.47,14.0425 C10.155,13.5725 10,12.9275 10,12.11 C10,11.3075 10.155,10.6725 10.47,10.2025 L10.47,10.2025 Z M13.75,16.535 L14.1675,16.535 C16.18,16.535 17.74,16.045 18.845,15.0675 C19.9475,14.0875 20.5,12.7125 20.5,10.9425 C20.5,10.12 20.375,9.335 20.125,8.585 C19.875,7.835 19.505,7.1425 19.015,6.505 C18.215,5.4525 17.22,4.6475 16.03,4.09 C14.84,3.53 13.5175,3.25 12.0575,3.25 C10.8875,3.25 9.76,3.4725 8.6675,3.915 C7.58,4.355 6.625,4.9775 5.805,5.785 C4.9875,6.595 4.3575,7.5375 3.915,8.61 C3.47,9.6825 3.25,10.81 3.25,11.9925 C3.25,13.22 3.47,14.3675 3.905,15.4375 C4.345,16.505 4.985,17.4425 5.825,18.255 C6.6625,19.0675 7.62,19.685 8.695,20.11 C9.77,20.535 10.915,20.75 12.13,20.75 C13.1225,20.75 14.1025,20.5875 15.07,20.265 C16.035,19.945 16.93,19.4825 17.75,18.88 L16.5775,17.25 C15.9975,17.785 15.295,18.2125 14.47,18.5275 C13.645,18.8425 12.8225,19 12,19 C11.04,19 10.135,18.83 9.29,18.4925 C8.4425,18.1525 7.6925,17.6625 7.04,17.02 C6.38,16.3625 5.875,15.6075 5.5225,14.75 C5.175,13.8925 5,12.975 5,11.995 C5,10.8075 5.27,9.7 5.8125,8.68 C6.3575,7.66 7.115,6.8275 8.085,6.1825 C8.68,5.795 9.325,5.5025 10.02,5.3 C10.7175,5.1 11.4475,5 12.21,5 C13.3025,5 14.3175,5.22 15.255,5.66 C16.1925,6.0975 16.9725,6.7225 17.5975,7.53 C17.985,8.015 18.275,8.55 18.465,9.13 C18.655,9.71 18.75,10.3325 18.75,10.995 C18.75,12.0375 18.505,12.8925 18.015,13.5625 C17.525,14.23 16.8525,14.625 16,14.75 L16,8 L13.75,8 L13.75,9.1825 C13.5625,8.7325 13.26,8.3825 12.845,8.13 C12.4275,7.8775 11.94,7.75 11.3825,7.75 C10.3125,7.75 9.4375,8.155 8.7625,8.97 C8.0875,9.78 7.75,10.8325 7.75,12.13 C7.75,13.4275 8.085,14.4825 8.7575,15.29 C9.4325,16.0975 10.3075,16.5 11.3825,16.5 C11.94,16.5 12.4275,16.3775 12.845,16.13 C13.26,15.8825 13.5625,15.535 13.75,15.09 L13.75,16.535 L13.75,16.535 Z"/>
    <path transform="translate(4,4)" fill="none" d="M0 0h24v24h-24z"/>
</svg>