<?xml version="1.0" encoding="UTF-8" standalone="no"?>
<svg width="48px" height="48px" viewBox="0 0 48 48" version="1.1" xmlns="http://www.w3.org/2000/svg" xmlns:xlink="http://www.w3.org/1999/xlink" xmlns:sketch="http://www.bohemiancoding.com/sketch/ns">
    <!-- Generator: Sketch 3.3.1 (12005) - http://www.bohemiancoding.com/sketch -->
    <title>Artboard 1</title>
    <desc>Created with Sketch.</desc>
    <defs></defs>
    <g id="Page-1" stroke="none" stroke-width="1" fill="none" fill-rule="evenodd" sketch:type="MSPage">
        <g id="Artboard-1" sketch:type="MSArtboardGroup" fill="#FFFFFF">
            <g id="follow-bi-directionally" sketch:type="MSLayerGroup" transform="translate(7.250000, 8.500000)">
                <g id="Group" sketch:type="MSShapeGroup">
                    <path d="M12.17175,5.34925 L12.17175,0.19575 C15.37575,3.01775 18.34725,5.63475 21.3935,8.31775 C18.3355,11.00875 15.383,13.60675 12.198,16.40925 L12.198,11.32625 L0.0605,11.32625 L0.0605,5.34925 C4.031,5.34925 8.00825,5.34925 12.17175,5.34925 L12.17175,5.34925 Z" id="Shape"></path>
                    <path d="M21.335,13.5555 L21.335,18.70575 L33.45425,18.70575 L33.45425,24.6775 L21.33125,24.6775 L21.33125,29.8035 C18.13075,26.98675 15.18125,24.39125 12.10825,21.687 C15.13575,19.01875 18.086,16.41875 21.335,13.5555 L21.335,13.5555 Z" id="Shape"></path>
                </g>
            </g>
        </g>
    </g>
</svg>