<?xml version="1.0" encoding="UTF-8" standalone="no"?>
<svg width="64px" height="64px" viewBox="0 0 64 64" version="1.1" xmlns="http://www.w3.org/2000/svg" xmlns:xlink="http://www.w3.org/1999/xlink" xmlns:sketch="http://www.bohemiancoding.com/sketch/ns">
    <!-- Generator: Sketch 3.3.1 (12005) - http://www.bohemiancoding.com/sketch -->
    <title>Slice 1</title>
    <desc>Created with Sketch.</desc>
    <defs></defs>
    <g id="Page-1" stroke="none" stroke-width="1" fill="none" fill-rule="evenodd" sketch:type="MSPage">
        <g id="ic_info_search-mdpi" sketch:type="MSLayerGroup">
            <path d="M41.3333333,37.3333333 L39.2266667,37.3333333 L38.48,36.6133333 C41.0933333,33.5733333 42.6666667,29.6266667 42.6666667,25.3333333 C42.6666667,15.76 34.9066667,8 25.3333333,8 C15.76,8 8,15.76 8,25.3333333 C8,34.9066667 15.76,42.6666667 25.3333333,42.6666667 C29.6266667,42.6666667 33.5733333,41.0933333 36.6133333,38.48 L37.3333333,39.2266667 L37.3333333,41.3333333 L50.6666667,54.64 L54.64,50.6666667 L41.3333333,37.3333333 L41.3333333,37.3333333 Z M25.3333333,37.3333333 C18.6933333,37.3333333 13.3333333,31.9733333 13.3333333,25.3333333 C13.3333333,18.6933333 18.6933333,13.3333333 25.3333333,13.3333333 C31.9733333,13.3333333 37.3333333,18.6933333 37.3333333,25.3333333 C37.3333333,31.9733333 31.9733333,37.3333333 25.3333333,37.3333333 L25.3333333,37.3333333 Z" id="Shape" fill="#FFFFFF" sketch:type="MSShapeGroup"></path>
            <path d="M0,0 L64,0 L64,64 L0,64 L0,0 Z" id="Shape" sketch:type="MSShapeGroup"></path>
        </g>
    </g>
</svg>