<?xml version="1.0" encoding="UTF-8" standalone="no"?>
<svg width="64px" height="64px" viewBox="0 0 64 64" version="1.1" xmlns="http://www.w3.org/2000/svg" xmlns:xlink="http://www.w3.org/1999/xlink" xmlns:sketch="http://www.bohemiancoding.com/sketch/ns">
    <!-- Generator: Sketch 3.3.1 (12005) - http://www.bohemiancoding.com/sketch -->
    <title>Slice 1</title>
    <desc>Created with Sketch.</desc>
    <defs></defs>
    <g id="Page-1" stroke="none" stroke-width="1" fill="none" fill-rule="evenodd" sketch:type="MSPage">
        <g id="ic_info_error_generic-mdpi" sketch:type="MSLayerGroup">
            <path d="M0,0 L64,0 L64,64 L0,64 L0,0 Z" id="Shape" sketch:type="MSShapeGroup"></path>
            <path d="M5.33333333,32 C5.33333333,46.72 17.28,58.6666667 32,58.6666667 C46.72,58.6666667 58.6666667,46.72 58.6666667,32 C58.6666667,17.28 46.72,5.33333333 32,5.33333333 C17.28,5.33333333 5.33333333,17.28 5.33333333,32 Z M34.6666667,45.3333333 L29.3333333,45.3333333 L29.3333333,40 L34.6666667,40 L34.6666667,45.3333333 L34.6666667,45.3333333 Z M34.6666667,34.6666667 L29.3333333,34.6666667 L29.3333333,18.6666667 L34.6666667,18.6666667 L34.6666667,34.6666667 L34.6666667,34.6666667 Z" id="Shape" fill="#FFFFFF" sketch:type="MSShapeGroup"></path>
        </g>
    </g>
</svg>