<?xml version="1.0" encoding="UTF-8" standalone="no"?>
<svg width="64px" height="64px" viewBox="0 0 64 64" version="1.1" xmlns="http://www.w3.org/2000/svg" xmlns:xlink="http://www.w3.org/1999/xlink" xmlns:sketch="http://www.bohemiancoding.com/sketch/ns">
    <!-- Generator: Sketch 3.3.1 (12005) - http://www.bohemiancoding.com/sketch -->
    <title>Slice 1</title>
    <desc>Created with Sketch.</desc>
    <defs></defs>
    <g id="Page-1" stroke="none" stroke-width="1" fill="none" fill-rule="evenodd" sketch:type="MSPage">
        <g id="ic_action_accounts-ldpi" sketch:type="MSLayerGroup">
            <path d="M42.6666667,29.3333333 C47.0933333,29.3333333 50.64,25.76 50.64,21.3333333 C50.64,16.9066667 47.0933333,13.3333333 42.6666667,13.3333333 C38.24,13.3333333 34.6666667,16.9066667 34.6666667,21.3333333 C34.6666667,25.76 38.24,29.3333333 42.6666667,29.3333333 L42.6666667,29.3333333 Z M21.3333333,29.3333333 C25.76,29.3333333 29.3066667,25.76 29.3066667,21.3333333 C29.3066667,16.9066667 25.76,13.3333333 21.3333333,13.3333333 C16.9066667,13.3333333 13.3333333,16.9066667 13.3333333,21.3333333 C13.3333333,25.76 16.9066667,29.3333333 21.3333333,29.3333333 L21.3333333,29.3333333 Z M21.3333333,34.6666667 C15.12,34.6666667 2.66666667,37.7866667 2.66666667,44 L2.66666667,50.6666667 L40,50.6666667 L40,44 C40,37.7866667 27.5466667,34.6666667 21.3333333,34.6666667 L21.3333333,34.6666667 Z M42.6666667,34.6666667 C41.8933333,34.6666667 41.0133333,34.72 40.08,34.8 C43.1733333,37.04 45.3333333,40.0533333 45.3333333,44 L45.3333333,50.6666667 L61.3333333,50.6666667 L61.3333333,44 C61.3333333,37.7866667 48.88,34.6666667 42.6666667,34.6666667 L42.6666667,34.6666667 Z" id="Shape" fill="#FFFFFF" sketch:type="MSShapeGroup"></path>
            <path d="M0,0 L64,0 L64,64 L0,64 L0,0 Z" id="Shape" sketch:type="MSShapeGroup"></path>
        </g>
    </g>
</svg>