<?xml version="1.0" encoding="UTF-8" standalone="no"?>
<svg width="64px" height="64px" viewBox="0 0 64 64" version="1.1" xmlns="http://www.w3.org/2000/svg" xmlns:xlink="http://www.w3.org/1999/xlink" xmlns:sketch="http://www.bohemiancoding.com/sketch/ns">
    <!-- Generator: Sketch 3.3.1 (12005) - http://www.bohemiancoding.com/sketch -->
    <title>Slice 1</title>
    <desc>Created with Sketch.</desc>
    <defs></defs>
    <g id="Page-1" stroke="none" stroke-width="1" fill="none" fill-rule="evenodd" sketch:type="MSPage">
        <g id="ic_action_draft-ldpi" sketch:type="MSLayerGroup">
            <path d="M58.64,21.3333333 C58.64,19.4133333 57.6533333,17.7333333 56.1333333,16.8 L32,2.66666667 L7.86666667,16.8 C6.34666667,17.7333333 5.33333333,19.4133333 5.33333333,21.3333333 L5.33333333,48 C5.33333333,50.9333333 7.73333333,53.3333333 10.6666667,53.3333333 L53.3333333,53.3333333 C56.2666667,53.3333333 58.6666667,50.9333333 58.6666667,48 L58.64,21.3333333 L58.64,21.3333333 Z M32,34.6666667 L9.97333333,20.9066667 L32,8 L54.0266667,20.9066667 L32,34.6666667 L32,34.6666667 Z" id="Shape" fill="#FFFFFF" sketch:type="MSShapeGroup"></path>
            <path d="M0,0 L64,0 L64,64 L0,64 L0,0 Z" id="Shape" sketch:type="MSShapeGroup"></path>
        </g>
    </g>
</svg>