<?xml version="1.0" encoding="UTF-8" standalone="no"?>
<!DOCTYPE svg PUBLIC "-//W3C//DTD SVG 20010904//EN"
              "http://www.w3.org/TR/2001/REC-SVG-20010904/DTD/svg10.dtd">

<svg xmlns="http://www.w3.org/2000/svg"
     width="7.11111in" height="7.11111in"
     viewBox="0 0 512 512">
  <path id="未命名 #4"
        fill="black" 
        d="M 189.50,187.00
           C 189.50,187.00 84.45,299.73 84.45,299.73
             84.45,299.73 198.82,402.82 198.82,402.82
             198.82,402.82 189.50,187.00 189.50,187.00 Z
           M 83.57,154.39
           C 83.57,154.39 153.35,219.13 153.35,219.13
             153.35,219.13 88.57,289.30 88.57,289.30
             88.57,289.30 83.57,154.39 83.57,154.39 Z
           M 191.64,182.45
           C 191.64,182.45 500.55,155.00 500.55,155.00
             500.55,155.00 359.82,321.09 359.82,321.09
             359.82,321.09 191.64,182.45 191.64,182.45 Z
           M 191.91,182.27
           C 191.91,182.27 198.09,399.00 198.09,399.00
             198.09,399.00 417.22,392.04 417.22,392.04
             417.22,392.04 191.91,182.27 191.91,182.27 Z
           M 150.69,82.28
           C 150.69,82.28 221.66,146.34 221.66,146.34
             221.66,146.34 157.91,215.87 157.91,215.87
             157.91,215.87 86.53,152.31 86.53,152.31
             86.53,152.31 150.69,82.28 150.69,82.28 Z
           M 9.69,81.27
           C 9.69,81.27 145.21,81.23 145.21,81.23
             145.21,81.23 82.59,148.72 82.59,148.72
             82.59,148.72 9.69,81.27 9.69,81.27 Z" />
</svg>
