<?xml version="1.0" encoding="UTF-8" standalone="no"?>
<svg width="32px" height="32px" viewBox="0 0 32 32" version="1.1" xmlns="http://www.w3.org/2000/svg" xmlns:xlink="http://www.w3.org/1999/xlink">
    <!-- Generator: Sketch 3.7.2 (28276) - http://www.bohemiancoding.com/sketch -->
    <title>Artboard</title>
    <desc>Created with Sketch.</desc>
    <defs></defs>
    <g id="Page-1" stroke="none" stroke-width="1" fill="none" fill-rule="evenodd">
        <g id="Artboard">
            <polygon id="Shape" points="0 0 32 0 32 32 0 32"></polygon>
            <path d="M16,12 C17.1,12 18,11.1 18,10 C18,8.9 17.1,8 16,8 C14.9,8 14,8.9 14,10 C14,11.1 14.9,12 16,12 L16,12 Z M16,14 C14.9,14 14,14.9 14,16 C14,17.1 14.9,18 16,18 C17.1,18 18,17.1 18,16 C18,14.9 17.1,14 16,14 L16,14 Z M16,20 C14.9,20 14,20.9 14,22 C14,23.1 14.9,24 16,24 C17.1,24 18,23.1 18,22 C18,20.9 17.1,20 16,20 L16,20 Z" id="Shape" fill="#FFFFFF"></path>
        </g>
    </g>
</svg>