<?xml version="1.0" encoding="UTF-8" standalone="no"?>
<svg width="48px" height="48px" viewBox="0 0 48 48" version="1.1" xmlns="http://www.w3.org/2000/svg" xmlns:xlink="http://www.w3.org/1999/xlink">
    <!-- Generator: Sketch 3.6.1 (26313) - http://www.bohemiancoding.com/sketch -->
    <title>ic_account_logo_twitter-mdpi</title>
    <desc>Created with Sketch.</desc>
    <defs></defs>
    <g id="Miscellaneous" stroke="none" stroke-width="1" fill="none" fill-rule="evenodd">
        <g id="ic_account_logo_twitter-mdpi">
            <circle id="Oval-3" fill="#FFFFFF" cx="24" cy="24" r="24"></circle>
            <path d="M42,14.45091 C40.7490179,15.0056999 39.4046381,15.3806587 37.9935989,15.5492969 C39.4338637,14.6859588 40.5398369,13.3189447 41.0606752,11.6901433 C39.7129376,12.4894337 38.2200666,13.069967 36.6311862,13.382868 C35.3586891,12.027171 33.5458283,11.1800003 31.5395808,11.1800003 C27.6871429,11.1800003 24.5638538,14.303165 24.5638538,18.1553542 C24.5638538,18.7020604 24.625663,19.2344646 24.7445554,19.7449807 C18.9471817,19.4540923 13.8073229,16.6770338 10.3669044,12.4568502 C9.7664728,13.4870854 9.42248071,14.685337 9.42248071,15.9636793 C9.42248071,18.3836873 10.654062,20.5187764 12.5257471,21.7696342 C11.3822159,21.7334441 10.306712,21.4196726 9.3661436,20.8972175 C9.36564615,20.9263188 9.36564615,20.9555444 9.36564615,20.9848944 C9.36564615,24.364623 11.7701086,27.1839653 14.9611763,27.824691 C14.3757928,27.9841263 13.7595669,28.0693159 13.1233183,28.0693159 C12.6738652,28.0693159 12.2368485,28.025664 11.8110245,27.9442053 C12.6986137,30.7155429 15.2746991,32.732237 18.3271005,32.7885741 C15.9398003,34.6593887 12.9320458,35.7745648 9.66399649,35.7745648 C9.10099857,35.7745648 8.54571125,35.7416083 8,35.6771875 C11.0869747,37.6563235 14.7536121,38.8110475 18.6928564,38.8110475 C31.5232891,38.8110475 38.5394345,28.1819901 38.5394345,18.9642206 C38.5394345,18.6617663 38.5327188,18.3609286 38.5192875,18.0618321 C39.8820732,17.078358 41.0647793,15.8497615 42,14.45091" id="Fill-1" fill="#55ACEE"></path>
        </g>
    </g>
</svg>