<?xml version="1.0" encoding="UTF-8" standalone="no"?>
<svg width="32px" height="32px" viewBox="0 0 32 32" version="1.1" xmlns="http://www.w3.org/2000/svg" xmlns:xlink="http://www.w3.org/1999/xlink" xmlns:sketch="http://www.bohemiancoding.com/sketch/ns">
    <!-- Generator: Sketch 3.3.2 (12043) - http://www.bohemiancoding.com/sketch -->
    <title>Artboard</title>
    <desc>Created with Sketch.</desc>
    <defs></defs>
    <g id="Page-1" stroke="none" stroke-width="1" fill="none" fill-rule="evenodd" sketch:type="MSPage">
        <g id="Artboard" sketch:type="MSArtboardGroup" fill="#FFFFFF">
            <path d="M7.9,16 C7.9,14.29 9.29,12.9 11,12.9 L15,12.9 L15,11 L11,11 C8.24,11 6,13.24 6,16 C6,18.76 8.24,21 11,21 L15,21 L15,19.1 L11,19.1 C9.29,19.1 7.9,17.71 7.9,16 L7.9,16 Z M12,17 L20,17 L20,15 L12,15 L12,17 L12,17 Z M21,11 L17,11 L17,12.9 L21,12.9 C22.71,12.9 24.1,14.29 24.1,16 C24.1,17.71 22.71,19.1 21,19.1 L17,19.1 L17,21 L21,21 C23.76,21 26,18.76 26,16 C26,13.24 23.76,11 21,11 L21,11 Z" id="Shape" sketch:type="MSShapeGroup"></path>
        </g>
    </g>
</svg>