<?xml version="1.0" encoding="UTF-8" standalone="no"?>
<svg width="32px" height="32px" viewBox="0 0 32 32" version="1.1" xmlns="http://www.w3.org/2000/svg" xmlns:xlink="http://www.w3.org/1999/xlink" xmlns:sketch="http://www.bohemiancoding.com/sketch/ns">
    <!-- Generator: Sketch 3.3.2 (12043) - http://www.bohemiancoding.com/sketch -->
    <title>Artboard 1</title>
    <desc>Created with Sketch.</desc>
    <defs></defs>
    <g id="Page-1" stroke="none" stroke-width="1" fill="none" fill-rule="evenodd" sketch:type="MSPage">
        <g id="Artboard-1" sketch:type="MSArtboardGroup" fill="#FFFFFF">
            <path d="M23.43,16.98 C23.47,16.66 23.5,16.34 23.5,16 C23.5,15.66 23.47,15.34 23.43,15.02 L25.54,13.37 C25.73,13.22 25.78,12.95 25.66,12.73 L23.66,9.27 C23.54,9.05 23.27,8.97 23.05,9.05 L20.56,10.05 C20.04,9.65 19.48,9.32 18.87,9.07 L18.49,6.42 C18.46,6.18 18.25,6 18,6 L14,6 C13.75,6 13.54,6.18 13.51,6.42 L13.13,9.07 C12.52,9.32 11.96,9.66 11.44,10.05 L8.95,9.05 C8.72,8.96 8.46,9.05 8.34,9.27 L6.34,12.73 C6.21,12.95 6.27,13.22 6.46,13.37 L8.57,15.02 C8.53,15.34 8.5,15.67 8.5,16 C8.5,16.33 8.53,16.66 8.57,16.98 L6.46,18.63 C6.27,18.78 6.22,19.05 6.34,19.27 L8.34,22.73 C8.46,22.95 8.73,23.03 8.95,22.95 L11.44,21.95 C11.96,22.35 12.52,22.68 13.13,22.93 L13.51,25.58 C13.54,25.82 13.75,26 14,26 L18,26 C18.25,26 18.46,25.82 18.49,25.58 L18.87,22.93 C19.48,22.68 20.04,22.34 20.56,21.95 L23.05,22.95 C23.28,23.04 23.54,22.95 23.66,22.73 L25.66,19.27 C25.78,19.05 25.73,18.78 25.54,18.63 L23.43,16.98 L23.43,16.98 Z M16,19.5 C14.07,19.5 12.5,17.93 12.5,16 C12.5,14.07 14.07,12.5 16,12.5 C17.93,12.5 19.5,14.07 19.5,16 C19.5,17.93 17.93,19.5 16,19.5 L16,19.5 Z" id="Shape" sketch:type="MSShapeGroup"></path>
        </g>
    </g>
</svg>