<?xml version="1.0" encoding="UTF-8"?>
<svg width="48px" height="48px" viewBox="0 0 48 48" version="1.1" xmlns="http://www.w3.org/2000/svg" xmlns:xlink="http://www.w3.org/1999/xlink">
    <!-- Generator: Sketch 43.1 (39012) - http://www.bohemiancoding.com/sketch -->
    <title>ic_account_logo_mastodon-mdpi</title>
    <desc>Created with Sketch.</desc>
    <defs>
        <circle id="path-1" cx="24" cy="24" r="24"></circle>
    </defs>
    <g id="Miscellaneous" stroke="none" stroke-width="1" fill="none" fill-rule="evenodd">
        <g id="ic_account_logo_mastodon-mdpi">
            <mask id="mask-2" fill="white">
                <use xlink:href="#path-1"></use>
            </mask>
            <use id="Oval-2" fill="#FAFAFA" xlink:href="#path-1"></use>
            <rect id="Rectangle" fill="#FFFFFF" mask="url(#mask-2)" x="0" y="0" width="48" height="48"></rect>
            <path d="M23.878481,13.0025316 L29.043038,13.0025316 C28.0405063,13.7012658 27.7063291,15.7367089 27.7063291,16.8 L27.7063291,26.521519 C27.7063291,28.6481013 26.035443,30.2886076 23.878481,30.2886076 C21.7518987,30.2886076 20.0506329,28.6177215 20.0506329,26.4911392 L20.0506329,16.7696203 C20.0506329,14.7037975 21.721519,13.0025316 23.878481,13.0025316 L23.878481,13.0025316 Z" id="Path" fill="#1BB4FE" mask="url(#mask-2)"></path>
            <path d="M10.6329114,15.3721519 C12.7594937,15.3721519 14.4607595,17.043038 14.4607595,19.1392405 L14.4607595,28.8607595 C14.4607595,29.8936709 14.764557,31.9594937 15.7670886,32.6278481 L10.6329114,32.6278481 C8.50632911,32.6278481 6.80506329,30.956962 6.80506329,28.8607595 L6.80506329,19.1392405 C6.80506329,17.0126582 8.47594937,15.3721519 10.6329114,15.3721519 Z" id="Path" fill="#1BB4FE" mask="url(#mask-2)"></path>
            <path d="M37.0632911,15.3721519 C39.1898734,15.3721519 40.8911392,17.043038 40.8911392,19.1392405 L40.8911392,28.8607595 C40.8911392,30.9873418 39.1898734,32.6278481 37.0329114,32.6278481 L31.8683544,32.6278481 C32.8405063,31.9594937 33.1746835,29.8936709 33.1746835,28.8607595 L33.1746835,19.1392405 C33.1746835,17.0126582 34.8759494,15.3721519 37.0025316,15.3721519 L37.0632911,15.3721519 Z" id="Path" fill="#1BB4FE" mask="url(#mask-2)"></path>
        </g>
    </g>
</svg>