<?xml version="1.0" encoding="UTF-8" standalone="no"?>
<svg width="32px" height="32px" viewBox="0 0 32 32" version="1.1" xmlns="http://www.w3.org/2000/svg" xmlns:xlink="http://www.w3.org/1999/xlink" xmlns:sketch="http://www.bohemiancoding.com/sketch/ns">
    <!-- Generator: Sketch 3.3.3 (12081) - http://www.bohemiancoding.com/sketch -->
    <title>Artboard</title>
    <desc>Created with Sketch.</desc>
    <defs></defs>
    <g id="Page-1" stroke="none" stroke-width="1" fill="none" fill-rule="evenodd" sketch:type="MSPage">
        <g id="Artboard" sketch:type="MSArtboardGroup" fill="#FFFFFF">
            <path d="M19.5,18 L18.71,18 L18.43,17.73 C19.41,16.59 20,15.11 20,13.5 C20,9.91 17.09,7 13.5,7 C9.91,7 7,9.91 7,13.5 C7,17.09 9.91,20 13.5,20 C15.11,20 16.59,19.41 17.73,18.43 L18,18.71 L18,19.5 L23,24.49 L24.49,23 L19.5,18 L19.5,18 Z M13.5,18 C11.01,18 9,15.99 9,13.5 C9,11.01 11.01,9 13.5,9 C15.99,9 18,11.01 18,13.5 C18,15.99 15.99,18 13.5,18 L13.5,18 Z" id="Shape" sketch:type="MSShapeGroup"></path>
        </g>
    </g>
</svg>