<?xml version="1.0" encoding="UTF-8" standalone="no"?>
<svg width="32px" height="32px" viewBox="0 0 32 32" version="1.1" xmlns="http://www.w3.org/2000/svg" xmlns:xlink="http://www.w3.org/1999/xlink" xmlns:sketch="http://www.bohemiancoding.com/sketch/ns">
    <!-- Generator: Sketch 3.4 (15588) - http://www.bohemiancoding.com/sketch -->
    <title>Artboard</title>
    <desc>Created with Sketch.</desc>
    <defs></defs>
    <g id="Page-1" stroke="none" stroke-width="1" fill="none" fill-rule="evenodd" sketch:type="MSPage">
        <g id="Artboard" sketch:type="MSArtboardGroup" fill="#FFFFFF">
            <path d="M21.65,10.35 C20.2,8.9 18.21,8 16,8 C11.58,8 8.01,11.58 8.01,16 C8.01,20.42 11.58,24 16,24 C19.73,24 22.84,21.45 23.73,18 L21.65,18 C20.83,20.33 18.61,22 16,22 C12.69,22 10,19.31 10,16 C10,12.69 12.69,10 16,10 C17.66,10 19.14,10.69 20.22,11.78 L17,15 L24,15 L24,8 L21.65,10.35 L21.65,10.35 Z" id="Shape" sketch:type="MSShapeGroup"></path>
        </g>
    </g>
</svg>