<?xml version="1.0" encoding="UTF-8" standalone="no"?>
<svg width="32px" height="32px" viewBox="0 0 32 32" version="1.1" xmlns="http://www.w3.org/2000/svg" xmlns:xlink="http://www.w3.org/1999/xlink">
    <!-- Generator: Sketch 3.7.2 (28276) - http://www.bohemiancoding.com/sketch -->
    <title>ic_action_infinity-mdpi</title>
    <desc>Created with Sketch.</desc>
    <defs></defs>
    <g id="Action-Icons" stroke="none" stroke-width="1" fill="none" fill-rule="evenodd">
        <g id="ic_action_infinity-mdpi" fill="#FFFFFF">
            <path d="M27,15.8192371 C27,17.4488749 26.4892257,18.8231011 25.4676617,19.9419569 C24.4460977,21.0608127 23.15092,21.6202322 21.5820896,21.6202322 C19.3322165,21.6202322 17.4532967,20.3007318 15.9452736,17.6616915 C14.4250891,20.2399244 12.6069758,21.5290216 10.4908789,21.5290216 C8.83691821,21.5290216 7.50829689,20.9939246 6.50497512,19.9237148 C5.50165336,18.8535049 5,17.4610368 5,15.7462687 C5,14.0801465 5.51381465,12.7059203 6.54145937,11.6235489 C7.56910409,10.5411776 8.88556411,10 10.4908789,10 C12.6799446,10 14.5102193,11.3073391 15.9817579,13.9220564 C17.4897809,11.355985 19.3565395,10.0729685 21.5820896,10.0729685 C23.1874044,10.0729685 24.4917031,10.6019848 25.4950249,11.6600332 C26.4983466,12.7180816 27,14.104469 27,15.8192371 L27,15.8192371 Z M10.6368159,19.1028192 C11.4029889,19.1028192 12.1144246,18.8383111 12.7711443,18.3092869 C13.427864,17.7802627 14.0724125,16.9259318 14.7048093,15.7462687 C14.108897,14.6030899 13.4856307,13.75788 12.8349917,13.2106136 C12.1843527,12.6633472 11.4394735,12.3897181 10.6003317,12.3897181 C9.66389803,12.3897181 8.9068575,12.708952 8.3291874,13.3474295 C7.75151729,13.985907 7.46268657,14.7976733 7.46268657,15.7827529 C7.46268657,16.7678325 7.74847697,17.5674375 8.32006633,18.181592 C8.8916557,18.7957466 9.66389784,19.1028192 10.6368159,19.1028192 L10.6368159,19.1028192 Z M21.3631841,12.4626866 C20.5970111,12.4626866 19.8886157,12.7332753 19.2379768,13.274461 C18.5873378,13.8156467 17.9397489,14.6638969 17.2951907,15.8192371 C17.891103,16.9624159 18.5174097,17.8076258 19.1741294,18.3548922 C19.8308491,18.9021586 20.572688,19.1757877 21.3996683,19.1757877 C22.3239405,19.1757877 23.0779407,18.8595941 23.6616915,18.2271973 C24.2454424,17.5948006 24.5373134,16.7921552 24.5373134,15.8192371 C24.5373134,14.870642 24.2484827,14.0740773 23.6708126,13.4295191 C23.0931425,12.7849608 22.3239407,12.4626866 21.3631841,12.4626866 L21.3631841,12.4626866 Z" id="∞"></path>
        </g>
    </g>
</svg>