<?xml version="1.0" encoding="UTF-8"?>
<svg width="32px" height="32px" viewBox="0 0 32 32" version="1.1" xmlns="http://www.w3.org/2000/svg" xmlns:xlink="http://www.w3.org/1999/xlink">
    <!-- Generator: Sketch 42 (36781) - http://www.bohemiancoding.com/sketch -->
    <title>ic_action_streaming-mdpi</title>
    <desc>Created with Sketch.</desc>
    <defs></defs>
    <g id="Action-Icons" stroke="none" stroke-width="1" fill="none" fill-rule="evenodd">
        <g id="ic_action_streaming-mdpi">
            <rect id="Rectangle-2" x="4" y="4" width="24" height="24"></rect>
            <path d="M17.6036432,14.2816795 L21,5 L10,17.7183205 L14.3963568,17.7183205 L11,27 L22,14.2816795 L17.6036432,14.2816795 Z" id="Triangle" fill="#FFFFFF"></path>
            <path d="M15.25,3 L16.75,3 L16.75,8 L15.25,8 L15.25,3 Z M29,15.25 L29,16.75 L24,16.75 L24,15.25 L29,15.25 Z M16.75,29 L15.25,29 L15.25,24 L16.75,24 L16.75,29 Z M3,16.75 L3,15.25 L8,15.25 L8,16.75 L3,16.75 Z" id="Rectangle-4" fill="#FFFFFF"></path>
            <path d="M24.6620581,6.27728176 L25.7227182,7.33794193 L23.6013979,9.45926227 L22.5407377,8.3986021 L24.6620581,6.27728176 Z M25.7227182,24.6620581 L24.6620581,25.7227182 L22.5407377,23.6013979 L23.6013979,22.5407377 L25.7227182,24.6620581 Z M7.33794193,25.7227182 L6.27728176,24.6620581 L8.3986021,22.5407377 L9.45926227,23.6013979 L7.33794193,25.7227182 Z M6.27728176,7.33794193 L7.33794193,6.27728176 L9.45926227,8.3986021 L8.3986021,9.45926227 L6.27728176,7.33794193 Z" id="Rectangle-3" fill="#FFFFFF"></path>
        </g>
    </g>
</svg>