<?xml version="1.0" encoding="UTF-8" standalone="no"?>
<svg width="32px" height="32px" viewBox="0 0 32 32" version="1.1" xmlns="http://www.w3.org/2000/svg" xmlns:xlink="http://www.w3.org/1999/xlink" xmlns:sketch="http://www.bohemiancoding.com/sketch/ns">
    <!-- Generator: Sketch 3.3.2 (12043) - http://www.bohemiancoding.com/sketch -->
    <title>Artboard</title>
    <desc>Created with Sketch.</desc>
    <defs></defs>
    <g id="Page-1" stroke="none" stroke-width="1" fill="none" fill-rule="evenodd" sketch:type="MSPage">
        <g id="Artboard" sketch:type="MSArtboardGroup" fill-opacity="0.9" fill="#FFFFFF">
            <path d="M15.99,6 C10.47,6 6,10.48 6,16 C6,21.52 10.47,26 15.99,26 C21.52,26 26,21.52 26,16 C26,10.48 21.52,6 15.99,6 L15.99,6 Z M16,24 C11.58,24 8,20.42 8,16 C8,11.58 11.58,8 16,8 C20.42,8 24,11.58 24,16 C24,20.42 20.42,24 16,24 L16,24 Z" id="Shape" sketch:type="MSShapeGroup"></path>
            <path d="M16.5,11 L15,11 L15,17 L20.25,20.15 L21,18.92 L16.5,16.25 L16.5,11 Z" id="Shape" sketch:type="MSShapeGroup"></path>
        </g>
    </g>
</svg>