<?xml version="1.0" encoding="UTF-8" standalone="no"?>
<svg width="18px" height="18px" viewBox="0 0 18 18" version="1.1" xmlns="http://www.w3.org/2000/svg" xmlns:xlink="http://www.w3.org/1999/xlink">
    <!-- Generator: Sketch 39.1 (31720) - http://www.bohemiancoding.com/sketch -->
    <title>ic_activity_action_pinned-mdpi</title>
    <desc>Created with Sketch.</desc>
    <defs></defs>
    <g id="Action-Icons" stroke="none" stroke-width="1" fill="none" fill-rule="evenodd">
        <g id="ic_activity_action_pinned-mdpi" fill="#FFFFFF">
            <path d="M13.8468293,5.0390625 C13.8468293,5.2734375 13.7635772,5.47395833 13.5970732,5.640625 L11.3180488,7.921875 L13.4721951,10.078125 C13.5346341,10.140625 13.5554472,10.203125 13.5346341,10.265625 C13.5346341,10.3385417 13.4982114,10.4010417 13.4253659,10.453125 C12.6656911,10.9322917 11.7239024,10.9270833 10.6,10.4375 L7.60292683,12.796875 C7.83186992,13.484375 7.7798374,14.0833333 7.44682927,14.59375 C7.41560976,14.6458333 7.35837398,14.6770833 7.27512195,14.6875 C7.19186992,14.6979167 7.12422764,14.6770833 7.07219512,14.625 L3.40390244,10.953125 C3.36227642,10.9114583 3.34146341,10.8515625 3.34146341,10.7734375 C3.34146341,10.6953125 3.37788618,10.6302083 3.45073171,10.578125 C3.9502439,10.2552083 4.54861789,10.2083333 5.24585366,10.4375 L7.60292683,7.4375 C7.10341463,6.29166667 7.09821138,5.34895833 7.58731707,4.609375 C7.63934959,4.53645833 7.70178862,4.5 7.77463415,4.5 C7.83707317,4.47916667 7.8995122,4.5 7.96195122,4.5625 L10.1160976,6.71875 L12.395122,4.4375 C12.561626,4.27083333 12.7619512,4.1875 12.9960976,4.1875 C13.2302439,4.1875 13.4305691,4.27083333 13.5970732,4.4375 C13.7635772,4.60416667 13.8468293,4.8046875 13.8468293,5.0390625 L13.8468293,5.0390625 Z M4.01268293,17 L14.0029268,17 C14.8354472,17 15.5430894,16.7083333 16.1258537,16.125 C16.7086179,15.5416667 17,14.8333333 17,14 L17,4 C17,3.16666667 16.7086179,2.45833333 16.1258537,1.875 C15.5430894,1.29166667 14.8354472,1 14.0029268,1 L4.01268293,1 C3.1801626,1 2.4699187,1.29166667 1.88195122,1.875 C1.29398374,2.45833333 1,3.16666667 1,4 L1,14 C1,14.8333333 1.29398374,15.5416667 1.88195122,16.125 C2.4699187,16.7083333 3.1801626,17 4.01268293,17 L4.01268293,17 Z" id="Shape" transform="translate(9.000000, 9.000000) scale(1, -1) translate(-9.000000, -9.000000) "></path>
        </g>
    </g>
</svg>