<?xml version="1.0" encoding="UTF-8" standalone="no"?>
<svg width="32px" height="32px" viewBox="0 0 32 32" version="1.1" xmlns="http://www.w3.org/2000/svg" xmlns:xlink="http://www.w3.org/1999/xlink">
    <!-- Generator: Sketch 3.6.1 (26313) - http://www.bohemiancoding.com/sketch -->
    <title>ic_action_notification-mdpi</title>
    <desc>Created with Sketch.</desc>
    <defs></defs>
    <g id="Action-Icons" stroke="none" stroke-width="1" fill="none" fill-rule="evenodd">
        <g id="ic_action_notification-mdpi" fill="#FFFFFF">
            <path d="M16,26 C17.1,26 18,25.1 18,24 L14,24 C14,25.1 14.9,26 16,26 L16,26 Z M22.5,20 L22.5,14.5 C22.5,11.43 20.37,8.86 17.5,8.18 L17.5,7.5 C17.5,6.67 16.83,6 16,6 C15.17,6 14.5,6.67 14.5,7.5 L14.5,8.18 C11.63,8.86 9.5,11.43 9.5,14.5 L9.5,20 L7.5,22 L7.5,23 L24.5,23 L24.5,22 L22.5,20 L22.5,20 Z" id="Shape"></path>
        </g>
    </g>
</svg>