<?xml version="1.0" encoding="UTF-8"?>
<svg width="32px" height="32px" viewBox="0 0 32 32" version="1.1" xmlns="http://www.w3.org/2000/svg" xmlns:xlink="http://www.w3.org/1999/xlink">
    <!-- Generator: Sketch 42 (36781) - http://www.bohemiancoding.com/sketch -->
    <title>ic_action_gif-mdpi</title>
    <desc>Created with Sketch.</desc>
    <defs></defs>
    <g id="Action-Icons" stroke="none" stroke-width="1" fill="none" fill-rule="evenodd">
        <g id="ic_action_gif-mdpi">
            <path d="M4,4 L28,4 L28,28 L4,28 L4,4 Z M15.75,15.47 L15.64,15.36 L15.75,15.47 Z" id="Shape"></path>
            <path d="M5,9.99406028 C5,8.8927712 5.88967395,8 6.991155,8 L25.008845,8 C26.1085295,8 27,8.89451376 27,9.99406028 L27,22.0059397 C27,23.1072288 26.1103261,24 25.008845,24 L6.991155,24 C5.89147046,24 5,23.1054862 5,22.0059397 L5,9.99406028 Z M14.0878477,18.6207906 L14.0878477,15.6434846 L11.1515373,15.6434846 L11.1515373,16.7759882 L12.5505124,16.7759882 L12.5505124,18.0622254 C12.3045375,18.3082003 11.8928774,18.4311859 11.3155197,18.4311859 C10.7415784,18.4311859 10.3060044,18.2313343 10.0087848,17.8316251 C9.71156512,17.431916 9.56295753,16.8409019 9.56295753,16.0585651 L9.56295753,15.5819912 C9.56637384,14.8064871 9.70473263,14.2223055 9.97803805,13.829429 C10.2513435,13.4365524 10.6493385,13.2401171 11.1720351,13.2401171 C11.5819932,13.2401171 11.9039763,13.3391888 12.1379941,13.5373353 C12.3720119,13.7354817 12.5231817,14.0480701 12.591508,14.4751098 L14.0878477,14.4751098 C13.9956071,13.6688588 13.7001001,13.0547849 13.2013177,12.6328697 C12.7025353,12.2109545 12.0107413,12 11.1259151,12 C10.49048,12 9.93619073,12.1443373 9.46303073,12.4330161 C8.98987073,12.7216949 8.62774649,13.1384795 8.37664714,13.6833821 C8.12554779,14.2282848 8,14.8731051 8,15.6178623 L8,16.125183 C8.00683264,16.8494423 8.14262923,17.4797435 8.40739385,18.0161054 C8.67215847,18.5524672 9.04794778,18.9615651 9.53477305,19.2434114 C10.0215983,19.5252576 10.5878445,19.6661786 11.2335285,19.6661786 C11.8484657,19.6661786 12.4087334,19.5747934 12.9143484,19.3920204 C13.4199634,19.2092474 13.8111259,18.9521734 14.0878477,18.6207906 Z M17.3426061,19.5636895 L17.3426061,12.102489 L15.8052709,12.102489 L15.8052709,19.5636895 L17.3426061,19.5636895 Z M23.6310395,16.5146412 L23.6310395,15.2745241 L20.6793558,15.2745241 L20.6793558,13.3477306 L24,13.3477306 L24,12.102489 L19.1420205,12.102489 L19.1420205,19.5636895 L20.6793558,19.5636895 L20.6793558,16.5146412 L23.6310395,16.5146412 Z" id="Combined-Shape" fill="#FFFFFF"></path>
        </g>
    </g>
</svg>