<?xml version="1.0" encoding="UTF-8"?>
<svg width="32px" height="32px" viewBox="0 0 32 32" version="1.1" xmlns="http://www.w3.org/2000/svg" xmlns:xlink="http://www.w3.org/1999/xlink">
    <!-- Generator: Sketch 42 (36781) - http://www.bohemiancoding.com/sketch -->
    <title>ic_action_attachment-mdpi</title>
    <desc>Created with Sketch.</desc>
    <defs></defs>
    <g id="Action-Icons" stroke="none" stroke-width="1" fill="none" fill-rule="evenodd">
        <g id="ic_action_attachment-mdpi">
            <path d="M20.5,10 L20.5,21.5 C20.5,23.71 18.71,25.5 16.5,25.5 C14.29,25.5 12.5,23.71 12.5,21.5 L12.5,9 C12.5,7.62 13.62,6.5 15,6.5 C16.38,6.5 17.5,7.62 17.5,9 L17.5,19.5 C17.5,20.05 17.05,20.5 16.5,20.5 C15.95,20.5 15.5,20.05 15.5,19.5 L15.5,10 L14,10 L14,19.5 C14,20.88 15.12,22 16.5,22 C17.88,22 19,20.88 19,19.5 L19,9 C19,6.79 17.21,5 15,5 C12.79,5 11,6.79 11,9 L11,21.5 C11,24.54 13.46,27 16.5,27 C19.54,27 22,24.54 22,21.5 L22,10 L20.5,10 Z" id="Shape" fill="#FFFFFF" fill-rule="nonzero"></path>
            <polygon id="Shape" points="4 4 28 4 28 28 4 28"></polygon>
        </g>
    </g>
</svg>