<?xml version="1.0" encoding="UTF-8"?>
<svg width="24px" height="24px" viewBox="0 0 24 24" version="1.1" xmlns="http://www.w3.org/2000/svg" xmlns:xlink="http://www.w3.org/1999/xlink">
    <!-- Generator: Sketch 42 (36781) - http://www.bohemiancoding.com/sketch -->
    <title>ic_label_video-mdpi</title>
    <desc>Created with Sketch.</desc>
    <defs></defs>
    <g id="Action-Icons" stroke="none" stroke-width="1" fill="none" fill-rule="evenodd">
        <g id="ic_label_video-mdpi">
            <g id="Group" transform="translate(2.000000, 2.000000)">
                <path d="M15,3.33333333 L16.6666667,6.66666667 L14.1666667,6.66666667 L12.5,3.33333333 L10.8333333,3.33333333 L12.5,6.66666667 L10,6.66666667 L8.33333333,3.33333333 L6.66666667,3.33333333 L8.33333333,6.66666667 L5.83333333,6.66666667 L4.16666667,3.33333333 L3.33333333,3.33333333 C2.41666667,3.33333333 1.675,4.08333333 1.675,5 L1.66666667,15 C1.66666667,15.9166667 2.41666667,16.6666667 3.33333333,16.6666667 L16.6666667,16.6666667 C17.5833333,16.6666667 18.3333333,15.9166667 18.3333333,15 L18.3333333,3.33333333 L15,3.33333333 Z" id="Shape" fill="#FFFFFF" fill-rule="nonzero"></path>
                <polygon id="Shape" points="0 0 20 0 20 20 0 20"></polygon>
            </g>
        </g>
    </g>
</svg>