<?xml version="1.0" encoding="UTF-8" standalone="no"?>
<svg width="24px" height="24px" viewBox="0 0 24 24" version="1.1" xmlns="http://www.w3.org/2000/svg" xmlns:xlink="http://www.w3.org/1999/xlink" xmlns:sketch="http://www.bohemiancoding.com/sketch/ns">
    <!-- Generator: Sketch 3.4.4 (17249) - http://www.bohemiancoding.com/sketch -->
    <title>Artboard</title>
    <desc>Created with Sketch.</desc>
    <defs></defs>
    <g id="Page-1" stroke="none" stroke-width="1" fill="none" fill-rule="evenodd" sketch:type="MSPage">
        <g id="Artboard" sketch:type="MSArtboardGroup" fill="#FFFFFF">
            <path d="M12,22 C13.1,22 14,21.1 14,20 L10,20 C10,21.1 10.9,22 12,22 L12,22 Z M18.5,16 L18.5,10.5 C18.5,7.43 16.37,4.86 13.5,4.18 L13.5,3.5 C13.5,2.67 12.83,2 12,2 C11.17,2 10.5,2.67 10.5,3.5 L10.5,4.18 C7.63,4.86 5.5,7.43 5.5,10.5 L5.5,16 L3.5,18 L3.5,19 L20.5,19 L20.5,18 L18.5,16 L18.5,16 Z" id="Shape" sketch:type="MSShapeGroup"></path>
        </g>
    </g>
</svg>