<?xml version="1.0" encoding="UTF-8"?>
<svg width="24px" height="24px" viewBox="0 0 24 24" version="1.1" xmlns="http://www.w3.org/2000/svg" xmlns:xlink="http://www.w3.org/1999/xlink">
    <!-- Generator: Sketch 42 (36781) - http://www.bohemiancoding.com/sketch -->
    <title>ic_stat_streaming-mdpi</title>
    <desc>Created with Sketch.</desc>
    <defs></defs>
    <g id="Miscellaneous" stroke="none" stroke-width="1" fill="none" fill-rule="evenodd">
        <g id="ic_stat_streaming-mdpi">
            <rect id="Rectangle-2" x="2.76923077" y="2.76923077" width="18.4615385" height="18.4615385"></rect>
            <path d="M13.2335717,10.678215 L15.8461538,3.53846154 L7.38461538,13.321785 L10.7664283,13.321785 L8.15384615,20.4615385 L16.6153846,10.678215 L13.2335717,10.678215 Z" id="Triangle" fill="#FFFFFF"></path>
            <path d="M11.4230769,2 L12.5769231,2 L12.5769231,5.84615385 L11.4230769,5.84615385 L11.4230769,2 Z M22,11.4230769 L22,12.5769231 L18.1538462,12.5769231 L18.1538462,11.4230769 L22,11.4230769 Z M12.5769231,22 L11.4230769,22 L11.4230769,18.1538462 L12.5769231,18.1538462 L12.5769231,22 Z M2,12.5769231 L2,11.4230769 L5.84615385,11.4230769 L5.84615385,12.5769231 L2,12.5769231 Z" id="Rectangle-4" fill="#FFFFFF"></path>
            <path d="M18.6631216,4.52098597 L19.479014,5.33687841 L17.8472292,6.96866329 L17.0313367,6.15277085 L18.6631216,4.52098597 Z M19.479014,18.6631216 L18.6631216,19.479014 L17.0313367,17.8472292 L17.8472292,17.0313367 L19.479014,18.6631216 Z M5.33687841,19.479014 L4.52098597,18.6631216 L6.15277085,17.0313367 L6.96866329,17.8472292 L5.33687841,19.479014 Z M4.52098597,5.33687841 L5.33687841,4.52098597 L6.96866329,6.15277085 L6.15277085,6.96866329 L4.52098597,5.33687841 Z" id="Rectangle-3" fill="#FFFFFF"></path>
        </g>
    </g>
</svg>