<?xml version="1.0" encoding="UTF-8" standalone="no"?>
<svg width="32px" height="32px" viewBox="0 0 32 32" version="1.1" xmlns="http://www.w3.org/2000/svg" xmlns:xlink="http://www.w3.org/1999/xlink" xmlns:sketch="http://www.bohemiancoding.com/sketch/ns">
    <!-- Generator: Sketch 3.3.1 (12005) - http://www.bohemiancoding.com/sketch -->
    <title>Artboard 1</title>
    <desc>Created with Sketch.</desc>
    <defs></defs>
    <g id="Page-1" stroke="none" stroke-width="1" fill="none" fill-rule="evenodd" sketch:type="MSPage">
        <g id="Artboard-1" sketch:type="MSArtboardGroup" stroke-width="1.5" stroke="#FFFFFF" fill="#FDC02F">
            <g id="lock" sketch:type="MSLayerGroup" transform="translate(3.750000, 2.062500)">
                <g id="Group" sketch:type="MSShapeGroup">
                    <path d="M4.62825,10.6689375 C4.62825,10.505375 4.62675,10.38325 4.6285,10.26125 C4.64525,9.106125 4.599625,7.946 4.6915625,6.7968125 C4.953625,3.522625 7.6290625,0.6669375 10.8781875,0.1205625 C15.043,-0.5798125 18.85075,1.99175 19.7105,6.106875 C19.822375,6.6424375 19.851125,7.2009375 19.865,7.7501875 C19.8891875,8.7065625 19.8716875,9.6639375 19.8716875,10.662375 C20.369375,10.662375 20.84575,10.6561875 21.3219375,10.6635625 C22.734875,10.6854375 23.8629375,11.4691875 24.27425,12.7424375 C24.374875,13.054 24.430875,13.3943125 24.4318125,13.721625 C24.442625,17.4183125 24.4443125,21.115125 24.4361875,24.811875 C24.4323125,26.537875 23.114,27.87275 21.393625,27.87525 C15.30175,27.8841875 9.2099375,27.88375 3.118125,27.875625 C1.393625,27.873375 0.06825,26.544875 0.064,24.8238125 C0.054875,21.127125 0.0554375,17.4303125 0.0636875,13.7335625 C0.0675,12.0375625 1.3130625,10.7495 3.010125,10.67275 C3.5378125,10.6488125 4.0675,10.6689375 4.62825,10.6689375 L4.62825,10.6689375 L4.62825,10.6689375 Z M16.9548125,10.642375 C16.9643125,10.5655625 16.9759375,10.5154375 16.9759375,10.4651875 C16.9768125,9.5173125 16.9841875,8.5693125 16.973875,7.6215625 C16.96375,6.6959375 16.71625,5.8378125 16.216375,5.051625 C15.154,3.380875 13.04725,2.537875 11.1301875,3.0259375 C9.122625,3.5370625 7.6531875,5.2513125 7.5568125,7.2601875 C7.5054375,8.33075 7.53175,9.405 7.5244375,10.477625 C7.524125,10.526875 7.538375,10.57625 7.548375,10.6424375 C10.683125,10.642375 13.803125,10.642375 16.9548125,10.642375 L16.9548125,10.642375 L16.9548125,10.642375 Z M12.256125,22.080625 C13.9380625,22.0766875 15.2993125,20.718 15.3009375,19.041625 C15.302375,17.3558125 13.9235,15.9895625 12.2283125,15.99725 C10.5549375,16.004875 9.188375,17.383875 9.1994375,19.05375 C9.2105,20.7331875 10.575125,22.0845625 12.256125,22.080625 L12.256125,22.080625 L12.256125,22.080625 Z" id="Shape"></path>
                </g>
            </g>
        </g>
    </g>
</svg>