<?xml version="1.0" encoding="UTF-8"?>
<svg width="108px" height="108px" viewBox="0 0 108 108" version="1.1" xmlns="http://www.w3.org/2000/svg" xmlns:xlink="http://www.w3.org/1999/xlink">
    <!-- Generator: Sketch 46.2 (44496) - http://www.bohemiancoding.com/sketch -->
    <title>ic_shortcut_list_adaptive_foreground-mdpi</title>
    <desc>Created with Sketch.</desc>
    <defs></defs>
    <g id="App-Icon-Adaptive" stroke="none" stroke-width="1" fill="none" fill-rule="evenodd">
        <g id="Shortcut-/-List-Timeline">
            <g id="Foreground">
                <g id="Group-2" transform="translate(18.000000, 18.000000)">
                    <rect id="Rectangle-2" x="0" y="0" width="72" height="72"></rect>
                    <path d="M15.75,38.25 L20.25,38.25 L20.25,33.75 L15.75,33.75 L15.75,38.25 Z M15.75,47.25 L20.25,47.25 L20.25,42.75 L15.75,42.75 L15.75,47.25 Z M15.75,29.25 L20.25,29.25 L20.25,24.75 L15.75,24.75 L15.75,29.25 Z M24.75,38.25 L56.25,38.25 L56.25,33.75 L24.75,33.75 L24.75,38.25 Z M24.75,47.25 L56.25,47.25 L56.25,42.75 L24.75,42.75 L24.75,47.25 Z M24.75,24.75 L24.75,29.25 L56.25,29.25 L56.25,24.75 L24.75,24.75 Z" id="Shape" fill="#2196F3" fill-rule="nonzero"></path>
                </g>
                <rect id="Guide" x="18" y="18" width="72" height="72"></rect>
            </g>
        </g>
    </g>
</svg>