<?xml version="1.0" encoding="UTF-8"?>
<svg width="108px" height="108px" viewBox="0 0 108 108" version="1.1" xmlns="http://www.w3.org/2000/svg" xmlns:xlink="http://www.w3.org/1999/xlink">
    <!-- Generator: Sketch 46.2 (44496) - http://www.bohemiancoding.com/sketch -->
    <title>ic_shortcut_compose_adaptive_foreground-mdpi</title>
    <desc>Created with Sketch.</desc>
    <defs></defs>
    <g id="App-Icon-Adaptive" stroke="none" stroke-width="1" fill="none" fill-rule="evenodd">
        <g id="Shortcut-/-Compose">
            <g id="Foreground">
                <path d="M73.7194289,41.4666836 C73.0485413,41.456187 72.2351335,42.4402449 72.8947238,43.1251491 C73.0928616,43.457542 74.3346989,43.8660354 75.0490379,44.0987104 C74.4337678,45.1160076 70.2789572,46.0440835 68.7729361,45.3696758 C68.190689,45.0162897 67.1356921,45.933869 67.6736189,46.8514483 C67.8604593,47.1392306 69.5646182,48.3778315 70.3667287,48.919282 C69.795779,49.4283679 64.1801366,49.2473013 63.4857852,48.720721 C62.6949721,48.4329387 61.7051521,49.3391467 62.2769708,50.1246436 L65.8973309,52.6237132 C65.5896958,53.2919979 60.5571695,55.724589 59.2571074,55.7858192 C58.1386716,55.0563043 55.8261949,55.0099443 54.3297331,55.7858192 C52.6377405,56.63692 48.9800124,59.9512269 47.2567349,62.3532029 C46.712725,63.4177348 45.3527002,64.6038526 42.6170081,65.4549534 C51.1464929,51.7717378 66.9445065,38.8792674 77,39.0008532 C76.9730602,40.2175861 75.0716325,41.3450978 73.7194289,41.4666836 L73.7194289,41.4666836 Z M52.6751086,46.3484854 L39.8352576,46.3484854 C39.3503414,46.3484854 38.9392924,46.4018432 38.9392924,46.9319224 L38.9392924,66.7442879 C38.9392924,67.0941751 39.1339541,67.4589326 39.5119801,67.4589326 L58.561887,67.4589326 C59.1006828,67.4589326 59.1006828,67.2673693 59.1006828,66.9629674 L59.1006828,61.8896023 C59.7507138,62.604247 62.8739913,61.4574915 63.0408442,60.8495624 L63.0408442,67.8088198 C63.0408442,69.4349208 61.5243948,71.3076923 59.6803228,71.3076923 L38.4761018,71.3076923 C36.7832402,71.3076923 35,69.6028667 35,67.8088198 L35,45.8822607 C35,44.3007703 36.6511484,42.6169379 38.4761018,42.6169379 L55.8948479,42.6169379 C54.2132837,44.0208605 54.0672874,44.7451271 52.6751086,46.3484854 L52.6751086,46.3484854 Z" id="未命名-#1" fill="#4A90E2"></path>
                <rect id="Guide" x="18" y="19" width="72" height="72"></rect>
            </g>
        </g>
    </g>
</svg>