<?xml version="1.0" encoding="UTF-8"?>
<svg width="32px" height="32px" viewBox="0 0 32 32" version="1.1" xmlns="http://www.w3.org/2000/svg" xmlns:xlink="http://www.w3.org/1999/xlink">
    <!-- Generator: Sketch 43.2 (39069) - http://www.bohemiancoding.com/sketch -->
    <title>ic_action_unpin-mdpi</title>
    <desc>Created with Sketch.</desc>
    <defs></defs>
    <g id="Action-Icons" stroke="none" stroke-width="1" fill="none" fill-rule="evenodd">
        <g id="ic_action_unpin-mdpi" fill="#FFFFFF">
            <path d="M12.3906728,12.8048864 L19.1694334,19.583647 C19.5421906,20.9821579 19.403641,22.1712129 18.7537846,23.1508117 C18.664983,23.2748682 18.558421,23.3368965 18.4340987,23.3368965 C18.3275367,23.3723412 18.2209747,23.3368965 18.1144127,23.2305623 L14.438024,19.5620343 L10.5485114,23.4432306 C10.2643461,23.7267883 6.40175165,26.3293749 6.03591493,25.9651238 C5.67007821,25.6008728 8.21302776,21.679856 8.49719307,21.3962983 L12.3867057,17.5151019 L8.71031705,13.8465739 C8.60375506,13.7402397 8.5682344,13.6339056 8.60375506,13.5275715 C8.60375506,13.4035149 8.66591622,13.2971808 8.79023854,13.208569 C9.80134969,12.5727928 11.0014945,12.4382319 12.3906728,12.8048864 Z M14.7535985,12.3393849 L18.7271442,9.22103852 C18.3364169,8.05136291 18.4252185,7.03232734 18.9935491,6.16393181 C19.0468301,6.07532002 19.1445119,6.02215295 19.2865946,6.00443059 C19.4286773,5.98670823 19.5441194,6.02215295 19.6329211,6.11076474 L25.893438,12.3578958 C25.9644793,12.4287853 26,12.5306888 26,12.6636065 C26,12.7965242 25.9378388,12.9072889 25.8135165,12.9959007 C24.9610206,13.5452938 23.9398015,13.6250444 22.7498593,13.2351525 L19.6202405,17.2060269 L14.7535985,12.3393849 Z" id="Combined-Shape"></path>
            <rect id="Rectangle" transform="translate(15.192388, 16.192388) rotate(-45.000000) translate(-15.192388, -16.192388) " x="14.1923882" y="4.19238816" width="2" height="24"></rect>
        </g>
    </g>
</svg>