<?xml version="1.0" encoding="UTF-8" standalone="no"?>
<svg width="18px" height="18px" viewBox="0 0 18 18" version="1.1" xmlns="http://www.w3.org/2000/svg" xmlns:xlink="http://www.w3.org/1999/xlink">
    <!-- Generator: Sketch 39.1 (31720) - http://www.bohemiancoding.com/sketch -->
    <title>ic_activity_action_poll-mdpi</title>
    <desc>Created with Sketch.</desc>
    <defs></defs>
    <g id="Action-Icons" stroke="none" stroke-width="1" fill="none" fill-rule="evenodd">
        <g id="ic_activity_action_poll-mdpi" fill="#FFFFFF">
            <path d="M6.63512195,5.453125 L6.63512195,8.71875 C6.63512195,8.95833333 6.54926829,9.1640625 6.37756098,9.3359375 C6.20585366,9.5078125 5.99772358,9.59375 5.75317073,9.59375 C5.50861789,9.59375 5.3004878,9.5078125 5.12878049,9.3359375 C4.95707317,9.1640625 4.87121951,8.95833333 4.87121951,8.71875 L4.87121951,5.453125 C4.87121951,5.21354167 4.95707317,5.00520833 5.12878049,4.828125 C5.3004878,4.65104167 5.50861789,4.5625 5.75317073,4.5625 C5.99772358,4.5625 6.20585366,4.65104167 6.37756098,4.828125 C6.54926829,5.00520833 6.63512195,5.21354167 6.63512195,5.453125 L6.63512195,5.453125 Z M13.1443902,5.453125 L13.1443902,10.484375 C13.1443902,10.734375 13.0585366,10.9453125 12.8868293,11.1171875 C12.715122,11.2890625 12.5069919,11.375 12.262439,11.375 C12.0178862,11.375 11.8097561,11.2890625 11.6380488,11.1171875 C11.4663415,10.9453125 11.3804878,10.734375 11.3804878,10.484375 L11.3804878,5.453125 C11.3804878,5.21354167 11.4663415,5.00520833 11.6380488,4.828125 C11.8097561,4.65104167 12.0178862,4.5625 12.262439,4.5625 C12.5069919,4.5625 12.715122,4.65104167 12.8868293,4.828125 C13.0585366,5.00520833 13.1443902,5.21354167 13.1443902,5.453125 L13.1443902,5.453125 Z M9.89756098,5.453125 L9.89756098,12.859375 C9.89756098,13.0989583 9.80910569,13.3072917 9.63219512,13.484375 C9.45528455,13.6614583 9.24715447,13.75 9.00780488,13.75 C8.76845528,13.75 8.5603252,13.6614583 8.38341463,13.484375 C8.20650407,13.3072917 8.11804878,13.0989583 8.11804878,12.859375 L8.11804878,5.453125 C8.11804878,5.21354167 8.20650407,5.00520833 8.38341463,4.828125 C8.5603252,4.65104167 8.76845528,4.5625 9.00780488,4.5625 C9.24715447,4.5625 9.45528455,4.65104167 9.63219512,4.828125 C9.80910569,5.00520833 9.89756098,5.21354167 9.89756098,5.453125 L9.89756098,5.453125 Z M4.01268293,17 L14.0029268,17 C14.8354472,17 15.5430894,16.7083333 16.1258537,16.125 C16.7086179,15.5416667 17,14.8333333 17,14 L17,4 C17,3.16666667 16.7086179,2.45833333 16.1258537,1.875 C15.5430894,1.29166667 14.8354472,1 14.0029268,1 L4.01268293,1 C3.1801626,1 2.4699187,1.29166667 1.88195122,1.875 C1.29398374,2.45833333 1,3.16666667 1,4 L1,14 C1,14.8333333 1.29398374,15.5416667 1.88195122,16.125 C2.4699187,16.7083333 3.1801626,17 4.01268293,17 L4.01268293,17 Z" id="Shape" transform="translate(9.000000, 9.000000) scale(1, -1) translate(-9.000000, -9.000000) "></path>
        </g>
    </g>
</svg>