<?xml version="1.0" encoding="UTF-8"?>
<svg width="32px" height="32px" viewBox="0 0 32 32" version="1.1" xmlns="http://www.w3.org/2000/svg" xmlns:xlink="http://www.w3.org/1999/xlink">
    <!-- Generator: Sketch 43.2 (39069) - http://www.bohemiancoding.com/sketch -->
    <title>ic_action_pin-mdpi</title>
    <desc>Created with Sketch.</desc>
    <defs></defs>
    <g id="Action-Icons" stroke="none" stroke-width="1" fill="none" fill-rule="evenodd">
        <g id="ic_action_pin-mdpi" fill="#FFFFFF">
            <path d="M23.5028069,10.6037017 L19.6132943,14.4848981 L23.289683,18.1534261 C23.3962449,18.2597603 23.4317656,18.3660944 23.3962449,18.4724285 C23.3962449,18.5964851 23.3340838,18.7028192 23.2097615,18.791431 C21.9132572,19.6066594 20.3059472,19.5977983 18.3878314,18.7648475 L13.2728558,22.7789615 C13.6635831,23.9486371 13.5747815,24.9676727 13.0064509,25.8360682 C12.9531699,25.92468 12.8554881,25.9778471 12.7134054,25.9955694 C12.5713227,26.0132918 12.4558806,25.9778471 12.3670789,25.8892353 L6.10656199,19.6421042 C6.03552066,19.5712147 6,19.4693112 6,19.3363935 C6,19.2034758 6.06216116,19.0927111 6.18648348,19.0040993 C7.03897941,18.4547062 8.06019848,18.3749556 9.25014071,18.7648475 L13.2728558,13.6608084 C12.4203599,11.7113491 12.4114798,10.1074757 13.2462154,8.84918829 C13.335017,8.72513179 13.441579,8.66310354 13.5659013,8.66310354 C13.6724633,8.62765882 13.7790253,8.66310354 13.8855873,8.76943768 L17.561976,12.4379657 L21.4514886,8.55676939 C21.7356539,8.27321166 25.5982483,5.67062508 25.9640851,6.03487615 C26.3299218,6.39912722 23.7869722,10.320144 23.5028069,10.6037017 Z" id="Path" transform="translate(16.000000, 16.000000) scale(-1, -1) translate(-16.000000, -16.000000) "></path>
        </g>
    </g>
</svg>