<?xml version="1.0" encoding="UTF-8"?>
<svg width="48px" height="48px" viewBox="0 0 48 48" version="1.1" xmlns="http://www.w3.org/2000/svg" xmlns:xlink="http://www.w3.org/1999/xlink">
    <!-- Generator: Sketch 40.3 (33839) - http://www.bohemiancoding.com/sketch -->
    <title>ic_app_shortcut_compose-mdpi</title>
    <desc>Created with Sketch.</desc>
    <defs></defs>
    <g id="Miscellaneous" stroke="none" stroke-width="1" fill="none" fill-rule="evenodd">
        <g id="ic_app_shortcut_compose-mdpi">
            <circle id="Oval-2" fill="#FAFAFA" cx="24" cy="24" r="24"></circle>
            <path d="M34.9691703,15.5269946 C34.5538589,15.5204967 34.0503207,16.1296754 34.4586385,16.5536638 C34.5812953,16.7594308 35.3500517,17.0123076 35.7922615,17.1563445 C35.4113801,17.7860999 32.8393544,18.3606231 31.9070557,17.9431327 C31.546617,17.7243698 30.8935237,18.2923951 31.226526,18.8604204 C31.3421891,19.0385713 32.3971446,19.8053242 32.8936892,20.1405079 C32.5402442,20.4556563 29.0638941,20.3435675 28.6340575,20.0175892 C28.1445065,19.8394382 27.5317608,20.4004241 27.8857438,20.8866841 L30.1269191,22.4337272 C29.9364784,22.8474273 26.8211049,24.353317 26.0163046,24.3912214 C25.3239396,23.939617 23.8924064,23.9109179 22.9660252,24.3912214 C21.9186013,24.9180933 19.6542934,26.9698071 18.5875026,28.4567446 C18.2507345,29.1157406 17.4088144,29.850004 15.7152907,30.3768759 C20.995448,21.9063139 30.7751707,13.9252608 37,14.0005282 C36.983323,14.7537438 35.8062487,15.4517272 34.9691703,15.5269946 L34.9691703,15.5269946 Z M21.9417339,18.5490624 L13.9932547,18.5490624 C13.6930685,18.5490624 13.4386096,18.5820934 13.4386096,18.9102377 L13.4386096,31.1750353 C13.4386096,31.3916322 13.5591144,31.6174344 13.7931306,31.6174344 L25.5859301,31.6174344 C25.9194703,31.6174344 25.9194703,31.4988477 25.9194703,31.3104084 L25.9194703,28.1697538 C26.3218705,28.6121529 28.255328,27.9022567 28.3586178,27.5259196 L28.3586178,31.8340313 C28.3586178,32.8406653 27.4198634,34 26.2782951,34 L13.1518725,34 C12.1039106,34 11,32.9446318 11,31.8340313 L11,18.2604471 C11,17.2814292 12.0221395,16.2390568 13.1518725,16.2390568 L23.9349059,16.2390568 C22.8939375,17.1081517 22.8035589,17.5565073 21.9417339,18.5490624 L21.9417339,18.5490624 Z" id="未命名-#1" fill="#55ACEE"></path>
        </g>
    </g>
</svg>