<?xml version="1.0" encoding="UTF-8"?>
<svg width="32px" height="32px" viewBox="0 0 32 32" version="1.1" xmlns="http://www.w3.org/2000/svg" xmlns:xlink="http://www.w3.org/1999/xlink">
    <!-- Generator: Sketch 41.2 (35397) - http://www.bohemiancoding.com/sketch -->
    <title>ic_action_retweet-mdpi</title>
    <desc>Created with Sketch.</desc>
    <defs></defs>
    <g id="Action-Icons" stroke="none" stroke-width="1" fill="none" fill-rule="evenodd">
        <g id="ic_action_retweet-mdpi" fill="#FFFFFF">
            <path d="M11.803184,9.00197603 C14.713832,8.99890803 21.315804,8.99994803 24.225776,9.00150803 C24.697,8.98148803 25.135308,9.38038003 25.136868,9.85566003 C25.145084,12.268928 25.136348,14.682716 25.140976,17.095932 C26.4273,17.10056 27.713676,17.094892 29,17.099052 C27.28868,18.991904 25.562436,20.871496 23.842848,22.756652 C23.76386,22.902252 23.66844,22.7592 23.595692,22.68692 C21.908916,20.817624 20.191408,18.976044 18.5103,17.10212 C19.792516,17.090888 21.074264,17.10212 22.356532,17.096504 C22.369324,15.326164 22.367764,13.555304 22.357,11.785484 C20.97172,11.779868 15.894492,11.786004 14.509212,11.782416 C13.615644,10.847716 12.692228,9.94125203 11.803184,9.00197603 Z M8.158244,9.06416803 C8.247476,8.90681603 8.350488,9.08928403 8.430516,9.16109603 C10.112144,11.018068 11.819928,12.852004 13.490272,14.7187 C12.205456,14.731544 10.92064,14.71558 9.635824,14.726396 C9.630728,16.494136 9.633276,18.261928 9.634836,20.029668 C11.023704,20.041992 16.257816,20.028108 17.647204,20.036844 C18.541344,20.969464 19.46372,21.875356 20.348604,22.816712 C17.422616,22.816712 10.651436,22.81926 7.7255,22.815152 C7.250792,22.819832 6.840616,22.386568 6.860064,21.914408 C6.857464,19.517572 6.861572,17.121204 6.858556,14.724836 C5.572232,14.719688 4.286324,14.726916 3,14.7213 C4.708304,12.825848 6.434548,10.945788 8.158244,9.06416803 Z" id="Combined-Shape"></path>
        </g>
    </g>
</svg>