<?xml version="1.0" encoding="UTF-8" standalone="no"?>
<svg width="48px" height="48px" viewBox="0 0 48 48" version="1.1" xmlns="http://www.w3.org/2000/svg" xmlns:xlink="http://www.w3.org/1999/xlink">
    <!-- Generator: Sketch 3.6.1 (26313) - http://www.bohemiancoding.com/sketch -->
    <title>ic_account_logo_fanfou-mdpi</title>
    <desc>Created with Sketch.</desc>
    <defs></defs>
    <g id="Miscellaneous" stroke="none" stroke-width="1" fill="none" fill-rule="evenodd">
        <g id="ic_account_logo_fanfou-mdpi">
            <circle id="Oval-3" fill="#FFFFFF" cx="24" cy="24" r="24"></circle>
            <path d="M12.7935223,9 L15.3846154,9.64777328 C15.211875,10.9433263 14.9095838,12.1956755 14.4777328,13.4048583 L20.9554656,13.4048583 L20.9554656,15.7368421 C20.9554656,15.9095825 20.7179511,16.6437182 20.242915,17.9392713 C19.7678789,19.2348243 19.2280732,20.443989 18.6234818,21.5668016 L16.4210526,20.2712551 C17.1983845,18.8893318 17.8029668,17.4210604 18.2348178,15.8663968 L13.7004049,15.8663968 C12.7503326,18.8893538 11.4979835,21.4804211 9.94331984,23.6396761 L8,21.5668016 C10.2456253,17.9392531 11.84345,13.7503611 12.7935223,9 L12.7935223,9 Z M13.0526316,19.8825911 L15.51417,19.8825911 L15.51417,34.9109312 C16.8097231,34.0472291 17.9757033,33.1403556 19.0121457,32.1902834 L19.5303644,35.0404858 C17.9757007,36.3360389 16.2051381,37.5452036 14.2186235,38.6680162 L13.0526316,37.242915 L13.0526316,19.8825911 Z M25.3603239,20.7894737 C25.1875835,27.7854601 23.9784188,33.6585457 21.7327935,38.4089069 L19.4008097,36.854251 C21.646435,32.2766303 22.7692308,26.1876223 22.7692308,18.5870445 L22.7692308,11.5910931 C27.0877409,11.0728719 31.0607106,10.2955517 34.6882591,9.25910931 L36.7611336,11.3319838 C33.3063255,12.3684262 29.5060936,13.1457464 25.3603239,13.6639676 L25.3603239,18.4574899 L36.6315789,18.4574899 C36.2860981,23.3805914 35.033749,27.6990368 32.8744939,31.4129555 C34.2564172,33.2267297 36.0269798,34.8677389 38.1862348,36.3360324 L36.8906883,38.6680162 C34.8178034,37.3724632 33.0040564,35.6882695 31.4493927,33.6153846 L29.7651822,35.4291498 C29.1605908,36.0337412 28.4696395,36.6383236 27.6923077,37.242915 C26.9149759,37.8475064 26.0944713,38.3657198 25.2307692,38.7975709 L23.6761134,36.5951417 C26.2672194,35.2995887 28.3400732,33.5290261 29.8947368,31.2834008 C27.9945924,27.8285927 26.6990588,24.330652 26.0080972,20.7894737 L25.3603239,20.7894737 Z M28.340081,20.7894737 C28.9446724,23.5533202 29.9379148,26.2307563 31.3198381,28.8218623 C32.6153911,26.3171265 33.4358957,23.6396904 33.7813765,20.7894737 L28.340081,20.7894737 Z" id="щен_border" stroke="#FFFFFF" stroke-width="3.5" stroke-linejoin="round" fill="#FFFFFF"></path>
            <path d="M12.7935223,9 L15.3846154,9.64777328 C15.211875,10.9433263 14.9095838,12.1956755 14.4777328,13.4048583 L20.9554656,13.4048583 L20.9554656,15.7368421 C20.9554656,15.9095825 20.7179511,16.6437182 20.242915,17.9392713 C19.7678789,19.2348243 19.2280732,20.443989 18.6234818,21.5668016 L16.4210526,20.2712551 C17.1983845,18.8893318 17.8029668,17.4210604 18.2348178,15.8663968 L13.7004049,15.8663968 C12.7503326,18.8893538 11.4979835,21.4804211 9.94331984,23.6396761 L8,21.5668016 C10.2456253,17.9392531 11.84345,13.7503611 12.7935223,9 L12.7935223,9 Z M13.0526316,19.8825911 L15.51417,19.8825911 L15.51417,34.9109312 C16.8097231,34.0472291 17.9757033,33.1403556 19.0121457,32.1902834 L19.5303644,35.0404858 C17.9757007,36.3360389 16.2051381,37.5452036 14.2186235,38.6680162 L13.0526316,37.242915 L13.0526316,19.8825911 Z M25.3603239,20.7894737 C25.1875835,27.7854601 23.9784188,33.6585457 21.7327935,38.4089069 L19.4008097,36.854251 C21.646435,32.2766303 22.7692308,26.1876223 22.7692308,18.5870445 L22.7692308,11.5910931 C27.0877409,11.0728719 31.0607106,10.2955517 34.6882591,9.25910931 L36.7611336,11.3319838 C33.3063255,12.3684262 29.5060936,13.1457464 25.3603239,13.6639676 L25.3603239,18.4574899 L36.6315789,18.4574899 C36.2860981,23.3805914 35.033749,27.6990368 32.8744939,31.4129555 C34.2564172,33.2267297 36.0269798,34.8677389 38.1862348,36.3360324 L36.8906883,38.6680162 C34.8178034,37.3724632 33.0040564,35.6882695 31.4493927,33.6153846 L29.7651822,35.4291498 C29.1605908,36.0337412 28.4696395,36.6383236 27.6923077,37.242915 C26.9149759,37.8475064 26.0944713,38.3657198 25.2307692,38.7975709 L23.6761134,36.5951417 C26.2672194,35.2995887 28.3400732,33.5290261 29.8947368,31.2834008 C27.9945924,27.8285927 26.6990588,24.330652 26.0080972,20.7894737 L25.3603239,20.7894737 Z M28.340081,20.7894737 C28.9446724,23.5533202 29.9379148,26.2307563 31.3198381,28.8218623 C32.6153911,26.3171265 33.4358957,23.6396904 33.7813765,20.7894737 L28.340081,20.7894737 Z" id="щен" fill="#00CBFF"></path>
        </g>
    </g>
</svg>