<?xml version="1.0" encoding="UTF-8" standalone="no"?>
<svg width="48px" height="48px" viewBox="0 0 48 48" version="1.1" xmlns="http://www.w3.org/2000/svg" xmlns:xlink="http://www.w3.org/1999/xlink">
    <!-- Generator: Sketch 3.6.1 (26313) - http://www.bohemiancoding.com/sketch -->
    <title>ic_account_logo_statusnet-mdpi</title>
    <desc>Created with Sketch.</desc>
    <defs></defs>
    <g id="Miscellaneous" stroke="none" stroke-width="1" fill="none" fill-rule="evenodd">
        <g id="ic_account_logo_statusnet-mdpi">
            <circle id="Oval-3" fill="#FFFFFF" cx="24" cy="24" r="24"></circle>
            <g id="logo" transform="translate(6.000000, 7.459459)">
                <path d="M0,14.0156288 C0,11.3711521 1.01208369,9.09124311 3.03625108,7.17590193 C4.29863505,5.97881369 5.75146486,5.16261716 7.39474054,4.72731234 C9.03801621,4.29200753 10.7030571,4.30833146 12.3898633,4.77628414 C14.0766694,5.24423681 15.5730297,6.16381823 16.8789442,7.5350284 C17.8366148,8.53622947 18.5167786,9.70066985 18.9194355,11.0283495 C19.3220925,12.3560292 19.4853318,13.6129719 19.4091534,14.7991775 C19.3329751,15.9853831 19.0772335,17.1008517 18.6419287,18.1455833 C18.2283891,19.0379581 18.1957413,20.0500418 18.5439851,21.1818343 C18.892229,22.3136269 19.3275338,23.2767388 19.8498995,24.07117 C20.3722653,24.8656013 20.9218377,25.6110608 21.4986165,26.3075485 C22.0753954,27.0040362 22.3637849,27.3631627 22.3637849,27.3849279 L22.0046584,27.0910972 C21.787006,26.8734448 21.5530296,26.6503511 21.3027294,26.421816 C21.0524291,26.193281 20.7150679,25.9157742 20.2906457,25.5892956 C19.8662235,25.262817 19.4526839,24.9689862 19.050027,24.7078033 C18.64737,24.4466204 18.1848586,24.1745549 17.6624929,23.8916068 C17.1401271,23.6086587 16.6504092,23.4073302 16.1933391,23.2876214 C15.7362691,23.1679126 15.2519924,23.0862929 14.7405093,23.0427624 C14.2290261,22.9992319 13.7665148,23.0754103 13.3529752,23.2712974 C12.3300089,23.684837 11.2036577,23.9024894 9.97392157,23.9242547 C8.74418546,23.9460199 7.47091888,23.7066023 6.15412182,23.2060017 C4.83732475,22.7054012 3.72185617,21.9545004 2.80771605,20.9532993 C0.935905352,18.9726624 0,16.6601056 0,14.0156288 L0,14.0156288 Z M4.30951767,13.3789955 C4.1136305,14.8807971 4.47819828,16.2356834 5.40322101,17.4436542 C6.32824374,18.6516251 7.54165591,19.3535541 9.04345753,19.5494413 C10.5452591,19.7453285 11.8947041,19.3807607 13.0917923,18.4557379 C14.2888805,17.5307152 14.9853682,16.317303 15.1812554,14.8155014 C15.3771426,13.3136998 15.0180161,11.9642549 14.103876,10.7671666 C13.1897359,9.57007841 11.981765,8.8735907 10.4799634,8.67770354 C8.9781618,8.48181637 7.62327557,8.84094284 6.41530471,9.75508295 C5.20733385,10.6692231 4.50540483,11.8771939 4.30951767,13.3789955 L4.30951767,13.3789955 Z" id="Combined-Shape" fill="#819E14"></path>
                <path d="M19.9151953,3.78052437 C20.3722653,2.49637517 21.1775792,1.54414589 22.331137,0.923836526 C23.4846948,0.303527165 24.7144309,0.211024892 26.0203453,0.646329706 C27.2827293,1.03810404 28.2240759,1.82165271 28.8443853,2.99697571 C29.4646946,4.17229871 29.5571969,5.43468267 29.1218921,6.78412759 C28.5995263,8.35122493 27.3589076,9.48301744 25.4000359,10.1795051 C24.7253135,10.4189228 24.121328,10.7834906 23.5880796,11.2732085 C23.0548312,11.7629264 22.6793808,12.176466 22.4617284,12.5138272 C22.244076,12.8511884 21.9937758,13.2919346 21.7108276,13.8360656 C22.1896629,11.790133 21.92848,10.0597963 20.927279,8.64505568 C19.7301907,6.90383642 19.3928295,5.28232598 19.9151953,3.78052437 Z M22.3964327,4.53142518 C22.1570151,5.11908668 22.1624564,5.71218949 22.4127566,6.31073361 C22.6630569,6.90927773 23.0820378,7.32825861 23.6696993,7.56767626 C24.2573608,7.80709391 24.8450223,7.80709391 25.4326838,7.56767626 C26.0203453,7.32825861 26.4338849,6.91471904 26.6733025,6.32705754 C26.9127202,5.7176308 26.9127202,5.11908668 26.6733025,4.53142518 C26.4338849,3.94376368 26.0203453,3.5302241 25.4326838,3.29080646 C24.8450223,3.05138881 24.2519195,3.05138881 23.6533754,3.29080646 C23.0548312,3.5302241 22.6358504,3.94376368 22.3964327,4.53142518 Z" id="Combined-Shape" fill="#2895C5"></path>
                <path d="M21.155814,19.9412156 C21.1993445,17.9388135 21.8849496,16.2520073 23.2126292,14.8807971 C24.5403089,13.509587 26.1944672,12.8239819 28.1751041,12.8239819 C30.1122106,12.8239819 31.7663689,13.493263 33.137579,14.8318254 C34.5087892,16.1703877 35.1943943,17.8735177 35.1943943,19.9412156 C35.1943943,22.3353921 33.997306,24.4575031 31.6031295,26.3075485 C30.7760504,26.9387405 30.1013279,27.7114066 29.5789622,28.6255467 C29.0565964,29.5396868 28.7246765,30.279705 28.5832024,30.8456012 C28.4417283,31.4114975 28.3056956,32.140633 28.1751041,33.0330079 C28.0880432,32.1623983 27.979217,31.4332627 27.8486255,30.8456012 C27.7180341,30.2579397 27.3915555,29.5015976 26.8691897,28.5765749 C26.3468239,27.6515521 25.6394536,26.8516796 24.7470787,26.1769571 C22.331137,24.3704421 21.1340488,22.2918616 21.155814,19.9412156 Z M24.5675155,21.3287497 C24.9701724,22.3190682 25.6829841,23.0318798 26.7059504,23.4671846 C27.7071515,23.8807242 28.7083525,23.8752829 29.7095536,23.4508607 C30.7107547,23.0264385 31.418125,22.3136269 31.8316646,21.3124258 C32.2452041,20.3112247 32.2452041,19.3154649 31.8316646,18.3251465 C31.418125,17.334828 30.7107547,16.6220164 29.7095536,16.1867116 C28.7083525,15.773172 27.7071515,15.773172 26.7059504,16.1867116 C25.7047493,16.6002512 24.997379,17.3076215 24.5838394,18.3088226 C24.1702998,19.3317889 24.1648585,20.3384313 24.5675155,21.3287497 Z" id="Combined-Shape" fill="#901616"></path>
            </g>
        </g>
    </g>
</svg>