<?xml version="1.0" encoding="UTF-8" standalone="no"?>
<svg width="32px" height="32px" viewBox="0 0 32 32" version="1.1" xmlns="http://www.w3.org/2000/svg" xmlns:xlink="http://www.w3.org/1999/xlink" xmlns:sketch="http://www.bohemiancoding.com/sketch/ns">
    <!-- Generator: Sketch 3.4 (15588) - http://www.bohemiancoding.com/sketch -->
    <title>Artboard</title>
    <desc>Created with Sketch.</desc>
    <defs></defs>
    <g id="Page-1" stroke="none" stroke-width="1" fill="none" fill-rule="evenodd" sketch:type="MSPage">
        <g id="Artboard" sketch:type="MSArtboardGroup" fill="#FFFFFF">
            <path d="M20,5 L8,5 C6.9,5 6,5.9 6,7 L6,21 L8,21 L8,7 L20,7 L20,5 L20,5 Z M23,9 L12,9 C10.9,9 10,9.9 10,11 L10,25 C10,26.1 10.9,27 12,27 L23,27 C24.1,27 25,26.1 25,25 L25,11 C25,9.9 24.1,9 23,9 L23,9 Z M23,25 L12,25 L12,11 L23,11 L23,25 L23,25 Z" id="Shape" sketch:type="MSShapeGroup"></path>
        </g>
    </g>
</svg>