<?xml version="1.0" encoding="UTF-8" standalone="no"?>
<svg width="32px" height="32px" viewBox="0 0 32 32" version="1.1" xmlns="http://www.w3.org/2000/svg" xmlns:xlink="http://www.w3.org/1999/xlink">
    <!-- Generator: Sketch 39.1 (31720) - http://www.bohemiancoding.com/sketch -->
    <title>ic_action_invisible-mdpi</title>
    <desc>Created with Sketch.</desc>
    <defs></defs>
    <g id="Action-Icons" stroke="none" stroke-width="1" fill="none" fill-rule="evenodd">
        <g id="ic_action_invisible-mdpi">
            <path d="M4,4 L28,4 L28,28 L4,28 L4,4 Z M4,4 L28,4 L28,28 L4,28 L4,4 Z M4,4 L28,4 L28,28 L4,28 L4,4 Z M4,4 L28,4 L28,28 L4,28 L4,4 Z" id="Shape"></path>
            <path d="M16,11 C18.76,11 21,13.24 21,16 C21,16.65 20.87,17.26 20.64,17.83 L23.56,20.75 C25.07,19.49 26.26,17.86 26.99,16 C25.26,11.61 20.99,8.5 15.99,8.5 C14.59,8.5 13.25,8.75 12.01,9.2 L14.17,11.36 C14.74,11.13 15.35,11 16,11 L16,11 Z M6,8.27 L8.28,10.55 L8.74,11.01 C7.08,12.3 5.78,14.02 5,16 C6.73,20.39 11,23.5 16,23.5 C17.55,23.5 19.03,23.2 20.38,22.66 L20.8,23.08 L23.73,26 L25,24.73 L7.27,7 L6,8.27 L6,8.27 Z M11.53,13.8 L13.08,15.35 C13.03,15.56 13,15.78 13,16 C13,17.66 14.34,19 16,19 C16.22,19 16.44,18.97 16.65,18.92 L18.2,20.47 C17.53,20.8 16.79,21 16,21 C13.24,21 11,18.76 11,16 C11,15.21 11.2,14.47 11.53,13.8 L11.53,13.8 Z M15.84,13.02 L18.99,16.17 L19.01,16.01 C19.01,14.35 17.67,13.01 16.01,13.01 L15.84,13.02 L15.84,13.02 Z" id="Shape" fill="#FFFFFF"></path>
        </g>
    </g>
</svg>