<?xml version="1.0" encoding="UTF-8" standalone="no"?>
<svg width="18px" height="18px" viewBox="0 0 18 18" version="1.1" xmlns="http://www.w3.org/2000/svg" xmlns:xlink="http://www.w3.org/1999/xlink" xmlns:sketch="http://www.bohemiancoding.com/sketch/ns">
    <!-- Generator: Sketch 3.4.3 (16618) - http://www.bohemiancoding.com/sketch -->
    <title>Artboard</title>
    <desc>Created with Sketch.</desc>
    <defs></defs>
    <g id="Page-1" stroke="none" stroke-width="1" fill="none" fill-rule="evenodd" sketch:type="MSPage">
        <g id="Artboard" sketch:type="MSArtboardGroup" fill="#FFFFFF">
            <path d="M1,4.00947762 C1,2.34738902 2.33663106,1 4.00947762,1 L13.9905224,1 C15.652611,1 17,2.33663106 17,4.00947762 L17,13.9905224 C17,15.652611 15.6633689,17 13.9905224,17 L4.00947762,17 C2.34738902,17 1,15.6633689 1,13.9905224 L1,4.00947762 Z M3,12.8181818 L7,12.8181818 L7,15 L3,15 L3,12.8181818 Z M3,9.54545455 L11,9.54545455 L11,11.7272727 L3,11.7272727 L3,9.54545455 Z M3,6.27272727 L15,6.27272727 L15,8.45454545 L3,8.45454545 L3,6.27272727 Z M3,3 L12,3 L12,5.18181818 L3,5.18181818 L3,3 Z" id="Rectangle-1" sketch:type="MSShapeGroup"></path>
        </g>
    </g>
</svg>