<?xml version="1.0" encoding="UTF-8" standalone="no"?>
<svg width="32px" height="32px" viewBox="0 0 32 32" version="1.1" xmlns="http://www.w3.org/2000/svg" xmlns:xlink="http://www.w3.org/1999/xlink" xmlns:sketch="http://www.bohemiancoding.com/sketch/ns">
    <!-- Generator: Sketch 3.3.2 (12043) - http://www.bohemiancoding.com/sketch -->
    <title>Artboard</title>
    <desc>Created with Sketch.</desc>
    <defs></defs>
    <g id="Page-1" stroke="none" stroke-width="1" fill="none" fill-rule="evenodd" sketch:type="MSPage">
        <g id="Artboard" sketch:type="MSArtboardGroup" fill="#FFFFFF">
            <path d="M16,11 C17.1,11 18,10.1 18,9 C18,8.62 17.9,8.27 17.71,7.97 L16,5 L14.29,7.97 C14.1,8.27 14,8.62 14,9 C14,10.1 14.9,11 16,11 L16,11 Z M25,25 L25,21 C25,19.9 24.1,19 23,19 L22,19 L22,16 C22,14.9 21.1,14 20,14 L17,14 L17,12 L15,12 L15,14 L12,14 C10.9,14 10,14.9 10,16 L10,19 L9,19 C7.9,19 7,19.9 7,21 L7,25 L5,25 L5,27 L27,27 L27,25 L25,25 L25,25 Z" id="Shape" sketch:type="MSShapeGroup"></path>
        </g>
    </g>
</svg>