<?xml version="1.0" encoding="UTF-8" standalone="no"?>
<svg width="48px" height="48px" viewBox="0 0 48 48" version="1.1" xmlns="http://www.w3.org/2000/svg" xmlns:xlink="http://www.w3.org/1999/xlink" xmlns:sketch="http://www.bohemiancoding.com/sketch/ns">
    <!-- Generator: Sketch 3.3.1 (12005) - http://www.bohemiancoding.com/sketch -->
    <title>Artboard 1</title>
    <desc>Created with Sketch.</desc>
    <defs></defs>
    <g id="Page-1" stroke="none" stroke-width="1" fill="none" fill-rule="evenodd" sketch:type="MSPage">
        <g id="Artboard-1" sketch:type="MSArtboardGroup" fill="#FFFFFF">
            <g id="requesting" sketch:type="MSLayerGroup" transform="translate(7.250000, 7.250000)">
                <g id="Group" sketch:type="MSShapeGroup">
                    <path d="M16.72575,0.097 C25.88625,0.074 33.46675,7.662 33.403,16.791 C33.339,25.961 25.91725,33.373 16.76875,33.40325 C7.60925,33.43325 0.038,25.852 0.09675,16.709 C0.15575,7.534 7.5775,0.11975 16.72575,0.097 L16.72575,0.097 Z M30.0715,16.778 C30.09175,9.3785 24.1845,3.4465 16.778,3.4285 C9.37575,3.41075 3.44425,9.31725 3.4285,16.722 C3.41275,24.1265 9.31525,30.054 16.722,30.0715 C24.125,30.089 30.051,24.18775 30.0715,16.778 L30.0715,16.778 Z" id="Shape"></path>
                    <path d="M17.5415,8.511 C17.5415,10.10425 17.5415001,16.7500366 17.5415001,16.7500366 C17.5415001,16.7500366 23.60825,20.76775 25.05275,21.62475 C24.63975,22.29 24.25875,22.90375 23.80775,23.6305 C20.978,21.9295 15.10425,18.111 15.10225,17.86325 C15.0785,14.7955 15.08675,11.727 15.08675,8.511 L17.5415,8.511 Z" id="Shape"></path>
                </g>
            </g>
        </g>
    </g>
</svg>