<?xml version="1.0" encoding="UTF-8" standalone="no"?>
<svg width="48px" height="48px" viewBox="0 0 48 48" version="1.1" xmlns="http://www.w3.org/2000/svg" xmlns:xlink="http://www.w3.org/1999/xlink" xmlns:sketch="http://www.bohemiancoding.com/sketch/ns">
    <!-- Generator: Sketch 3.3.1 (12005) - http://www.bohemiancoding.com/sketch -->
    <title>Artboard 1</title>
    <desc>Created with Sketch.</desc>
    <defs></defs>
    <g id="Page-1" stroke="none" stroke-width="1" fill="none" fill-rule="evenodd" sketch:type="MSPage">
        <g id="Artboard-1" sketch:type="MSArtboardGroup" fill="#FFFFFF">
            <g id="blocked" sketch:type="MSLayerGroup" transform="translate(7.000000, 7.000000)">
                <g id="Group" sketch:type="MSShapeGroup">
                    <path d="M0.324,17.00275 C0.32025,7.83675 7.88325,0.28525 17.02825,0.32375 C26.22025,0.3625 33.75425,7.93675 33.67575,17.05975 C33.59675,26.232 26.18725,33.63025 17.034,33.67625 C7.89325,33.72225 0.328,26.17325 0.324,17.00275 L0.324,17.00275 Z M27.5765,24.97725 C31.8975,19.8075 31.01475,11.489 25.68825,6.89025 C20.04875,2.0215 12.129,3.363 9.08875,6.49125 C15.2315,12.6335 21.3735,18.775 27.5765,24.97725 L27.5765,24.97725 Z M6.406,9.02725 C2.0495,14.38775 3.03475,22.7505 8.51175,27.282 C14.192,31.982 22.02075,30.549 24.89025,27.51875 C18.74725,21.3735 12.60675,15.23075 6.406,9.02725 L6.406,9.02725 Z" id="Shape"></path>
                </g>
            </g>
        </g>
    </g>
</svg>