<?xml version="1.0" encoding="UTF-8"?>
<svg width="24px" height="24px" viewBox="0 0 24 24" version="1.1" xmlns="http://www.w3.org/2000/svg" xmlns:xlink="http://www.w3.org/1999/xlink">
    <!-- Generator: Sketch 48.2 (47327) - http://www.bohemiancoding.com/sketch -->
    <title>ic_label_web_lock-mdpi</title>
    <desc>Created with Sketch.</desc>
    <defs></defs>
    <g id="Action-Icons" stroke="none" stroke-width="1" fill="none" fill-rule="evenodd">
        <g id="ic_label_web_lock-mdpi">
            <path d="M20.25,5.25 L20.25,4.875 C20.25,3.84 19.41,3 18.375,3 C17.34,3 16.5,3.84 16.5,4.875 L16.5,5.25 C16.0875,5.25 15.75,5.5875 15.75,6 L15.75,9 C15.75,9.4125 16.0875,9.75 16.5,9.75 L20.25,9.75 C20.6625,9.75 21,9.4125 21,9 L21,6 C21,5.5875 20.6625,5.25 20.25,5.25 Z M19.65,5.25 L17.1,5.25 L17.1,4.875 C17.1,4.17 17.67,3.6 18.375,3.6 C19.08,3.6 19.65,4.17 19.65,4.875 L19.65,5.25 Z M17.94,11.25 C17.97,11.4975 18,11.745 18,12 C18,13.56 17.4,14.9775 16.425,16.0425 C16.23,15.435 15.675,15 15,15 L14.25,15 L14.25,12.75 C14.25,12.3375 13.9125,12 13.5,12 L9,12 L9,10.5 L10.5,10.5 C10.9125,10.5 11.25,10.1625 11.25,9.75 L11.25,8.25 L12.75,8.25 C13.575,8.25 14.25,7.575 14.25,6.75 L14.25,4.845 C13.5375,4.62 12.7875,4.5 12,4.5 C7.86,4.5 4.5,7.86 4.5,12 C4.5,16.14 7.86,19.5 12,19.5 C16.14,19.5 19.5,16.14 19.5,12 C19.5,11.745 19.485,11.4975 19.4625,11.25 L17.94,11.25 L17.94,11.25 Z M11.25,17.9475 C8.2875,17.58 6,15.06 6,12 C6,11.535 6.06,11.0925 6.1575,10.6575 L9.75,14.25 L9.75,15 C9.75,15.825 10.425,16.5 11.25,16.5 L11.25,17.9475 Z" id="Shape" fill="#FFFFFF" fill-rule="nonzero"></path>
            <polygon id="Shape" points="3 3 21 3 21 21 3 21"></polygon>
        </g>
    </g>
</svg>