<?xml version="1.0" encoding="UTF-8"?>
<svg width="24px" height="24px" viewBox="0 0 24 24" version="1.1" xmlns="http://www.w3.org/2000/svg" xmlns:xlink="http://www.w3.org/1999/xlink">
    <!-- Generator: Sketch 46.2 (44496) - http://www.bohemiancoding.com/sketch -->
    <title>ic_label_poll-mdpi</title>
    <desc>Created with Sketch.</desc>
    <defs></defs>
    <g id="Action-Icons" stroke="none" stroke-width="1" fill="none" fill-rule="evenodd">
        <g id="ic_label_poll-mdpi">
            <polygon id="Shape" points="2 2 22 2 22 22 2 22"></polygon>
            <path d="M9.63512195,8.453125 L9.63512195,11.71875 C9.63512195,11.9583333 9.54926829,12.1640625 9.37756098,12.3359375 C9.20585366,12.5078125 8.99772358,12.59375 8.75317073,12.59375 C8.50861789,12.59375 8.3004878,12.5078125 8.12878049,12.3359375 C7.95707317,12.1640625 7.87121951,11.9583333 7.87121951,11.71875 L7.87121951,8.453125 C7.87121951,8.21354167 7.95707317,8.00520833 8.12878049,7.828125 C8.3004878,7.65104167 8.50861789,7.5625 8.75317073,7.5625 C8.99772358,7.5625 9.20585366,7.65104167 9.37756098,7.828125 C9.54926829,8.00520833 9.63512195,8.21354167 9.63512195,8.453125 L9.63512195,8.453125 Z M16.1443902,8.453125 L16.1443902,13.484375 C16.1443902,13.734375 16.0585366,13.9453125 15.8868293,14.1171875 C15.715122,14.2890625 15.5069919,14.375 15.262439,14.375 C15.0178862,14.375 14.8097561,14.2890625 14.6380488,14.1171875 C14.4663415,13.9453125 14.3804878,13.734375 14.3804878,13.484375 L14.3804878,8.453125 C14.3804878,8.21354167 14.4663415,8.00520833 14.6380488,7.828125 C14.8097561,7.65104167 15.0178862,7.5625 15.262439,7.5625 C15.5069919,7.5625 15.715122,7.65104167 15.8868293,7.828125 C16.0585366,8.00520833 16.1443902,8.21354167 16.1443902,8.453125 L16.1443902,8.453125 Z M12.897561,8.453125 L12.897561,15.859375 C12.897561,16.0989583 12.8091057,16.3072917 12.6321951,16.484375 C12.4552846,16.6614583 12.2471545,16.75 12.0078049,16.75 C11.7684553,16.75 11.5603252,16.6614583 11.3834146,16.484375 C11.2065041,16.3072917 11.1180488,16.0989583 11.1180488,15.859375 L11.1180488,8.453125 C11.1180488,8.21354167 11.2065041,8.00520833 11.3834146,7.828125 C11.5603252,7.65104167 11.7684553,7.5625 12.0078049,7.5625 C12.2471545,7.5625 12.4552846,7.65104167 12.6321951,7.828125 C12.8091057,8.00520833 12.897561,8.21354167 12.897561,8.453125 L12.897561,8.453125 Z M7.01268293,20 L17.0029268,20 C17.8354472,20 18.5430894,19.7083333 19.1258537,19.125 C19.7086179,18.5416667 20,17.8333333 20,17 L20,7 C20,6.16666667 19.7086179,5.45833333 19.1258537,4.875 C18.5430894,4.29166667 17.8354472,4 17.0029268,4 L7.01268293,4 C6.1801626,4 5.4699187,4.29166667 4.88195122,4.875 C4.29398374,5.45833333 4,6.16666667 4,7 L4,17 C4,17.8333333 4.29398374,18.5416667 4.88195122,19.125 C5.4699187,19.7083333 6.1801626,20 7.01268293,20 L7.01268293,20 Z" id="Shape" fill="#FFFFFF" transform="translate(12.000000, 12.000000) scale(1, -1) translate(-12.000000, -12.000000) "></path>
        </g>
    </g>
</svg>