<?xml version="1.0" encoding="UTF-8"?>
<svg width="24px" height="24px" viewBox="0 0 24 24" version="1.1" xmlns="http://www.w3.org/2000/svg" xmlns:xlink="http://www.w3.org/1999/xlink">
    <!-- Generator: Sketch 48.2 (47327) - http://www.bohemiancoding.com/sketch -->
    <title>ic_label_time-mdpi</title>
    <desc>Created with Sketch.</desc>
    <defs></defs>
    <g id="Action-Icons" stroke="none" stroke-width="1" fill="none" fill-rule="evenodd">
        <g id="ic_label_time-mdpi" fill="#FFFFFF">
            <g id="Group" transform="translate(4.500000, 4.500000)">
                <path d="M7.4925,0 C3.3525,0 0,3.36 0,7.5 C0,11.64 3.3525,15 7.4925,15 C11.64,15 15,11.64 15,7.5 C15,3.36 11.64,0 7.4925,0 L7.4925,0 L7.4925,0 Z M7.5,13.5 C4.185,13.5 1.5,10.815 1.5,7.5 C1.5,4.185 4.185,1.5 7.5,1.5 C10.815,1.5 13.5,4.185 13.5,7.5 C13.5,10.815 10.815,13.5 7.5,13.5 L7.5,13.5 L7.5,13.5 Z" id="Shape"></path>
                <polygon id="Shape" points="7.875 3.75 6.75 3.75 6.75 8.25 10.6875 10.6125 11.25 9.69 7.875 7.6875"></polygon>
            </g>
        </g>
    </g>
</svg>