<?xml version="1.0" encoding="UTF-8"?>
<svg width="16px" height="16px" viewBox="0 0 16 16" version="1.1" xmlns="http://www.w3.org/2000/svg" xmlns:xlink="http://www.w3.org/1999/xlink">
    <!-- Generator: Sketch 42 (36781) - http://www.bohemiancoding.com/sketch -->
    <title>ic_message_convertion_type_group-mdpi</title>
    <desc>Created with Sketch.</desc>
    <defs></defs>
    <g id="Action-Icons" stroke="none" stroke-width="1" fill="none" fill-rule="evenodd">
        <g id="ic_message_convertion_type_group-mdpi">
            <polygon id="Shape" points="0 0 16 0 16 16 0 16"></polygon>
            <path d="M10.6666667,7.33333333 C11.7733333,7.33333333 12.66,6.44 12.66,5.33333333 C12.66,4.22666667 11.7733333,3.33333333 10.6666667,3.33333333 C9.56,3.33333333 8.66666667,4.22666667 8.66666667,5.33333333 C8.66666667,6.44 9.56,7.33333333 10.6666667,7.33333333 Z M5.33333333,7.33333333 C6.44,7.33333333 7.32666667,6.44 7.32666667,5.33333333 C7.32666667,4.22666667 6.44,3.33333333 5.33333333,3.33333333 C4.22666667,3.33333333 3.33333333,4.22666667 3.33333333,5.33333333 C3.33333333,6.44 4.22666667,7.33333333 5.33333333,7.33333333 Z M5.33333333,8.66666667 C3.78,8.66666667 0.666666667,9.44666667 0.666666667,11 L0.666666667,12.6666667 L10,12.6666667 L10,11 C10,9.44666667 6.88666667,8.66666667 5.33333333,8.66666667 Z M10.6666667,8.66666667 C10.4733333,8.66666667 10.2533333,8.68 10.02,8.7 C10.7933333,9.26 11.3333333,10.0133333 11.3333333,11 L11.3333333,12.6666667 L15.3333333,12.6666667 L15.3333333,11 C15.3333333,9.44666667 12.22,8.66666667 10.6666667,8.66666667 Z" id="Shape" fill="#FFFFFF" fill-rule="nonzero"></path>
        </g>
    </g>
</svg>