<?xml version="1.0" encoding="UTF-8"?>
<svg width="48px" height="48px" viewBox="0 0 48 48" version="1.1" xmlns="http://www.w3.org/2000/svg" xmlns:xlink="http://www.w3.org/1999/xlink" style="background: #1CDCF8;">
    <!-- Generator: Sketch 42 (36781) - http://www.bohemiancoding.com/sketch -->
    <title>ic_profile_image_default_group-mdpi</title>
    <desc>Created with Sketch.</desc>
    <defs></defs>
    <g id="Miscellaneous" stroke="none" stroke-width="1" fill="none" fill-rule="evenodd">
        <g id="ic_profile_image_default_group-mdpi">
            <polygon id="Shape" fill="#1CDCF8" points="0 0 48 0 48 48 0 48"></polygon>
            <path d="M29.3333333,22.6666667 C31.5466667,22.6666667 33.32,20.88 33.32,18.6666667 C33.32,16.4533333 31.5466667,14.6666667 29.3333333,14.6666667 C27.12,14.6666667 25.3333333,16.4533333 25.3333333,18.6666667 C25.3333333,20.88 27.12,22.6666667 29.3333333,22.6666667 Z M18.6666667,22.6666667 C20.88,22.6666667 22.6533333,20.88 22.6533333,18.6666667 C22.6533333,16.4533333 20.88,14.6666667 18.6666667,14.6666667 C16.4533333,14.6666667 14.6666667,16.4533333 14.6666667,18.6666667 C14.6666667,20.88 16.4533333,22.6666667 18.6666667,22.6666667 Z M18.6666667,25.3333333 C15.56,25.3333333 9.33333333,26.8933333 9.33333333,30 L9.33333333,33.3333333 L28,33.3333333 L28,30 C28,26.8933333 21.7733333,25.3333333 18.6666667,25.3333333 Z M29.3333333,25.3333333 C28.9466667,25.3333333 28.5066667,25.36 28.04,25.4 C29.5866667,26.52 30.6666667,28.0266667 30.6666667,30 L30.6666667,33.3333333 L38.6666667,33.3333333 L38.6666667,30 C38.6666667,26.8933333 32.44,25.3333333 29.3333333,25.3333333 Z" id="Shape" fill="#FFFFFF" fill-rule="nonzero"></path>
        </g>
    </g>
</svg>