<?xml version="1.0" encoding="UTF-8" standalone="no"?>
<!DOCTYPE svg PUBLIC "-//W3C//DTD SVG 20010904//EN"
              "http://www.w3.org/TR/2001/REC-SVG-20010904/DTD/svg10.dtd">

<svg xmlns="http://www.w3.org/2000/svg"
     width="1.33333in" height="1.33333in"
     viewBox="0 0 96 96">
  <path id="@"
        fill="black"
        d="M 42.88,40.81
           C 44.13,38.94 45.82,38.00 47.92,38.00
             50.08,38.00 51.80,38.94 53.08,40.81
             54.36,42.69 55.00,45.23 55.00,48.44
             55.00,51.68 54.36,54.25 53.09,56.16
             51.82,58.05 50.12,59.00 48.00,59.00
             45.84,59.00 44.13,58.06 42.88,56.17
             41.62,54.29 41.00,51.71 41.00,48.44
             41.00,45.23 41.62,42.69 42.88,40.81 Z
           M 56.00,66.14
           C 56.00,66.14 57.67,66.14 57.67,66.14
             65.72,66.14 71.96,64.18 76.38,60.27
             80.79,56.35 83.00,50.85 83.00,43.77
             83.00,40.48 82.50,37.34 81.50,34.34
             80.50,31.34 79.02,28.57 77.06,26.02
             73.86,21.81 69.88,18.59 65.12,16.36
             60.36,14.12 55.07,13.00 49.23,13.00
             44.55,13.00 40.04,13.89 35.67,15.66
             31.32,17.42 27.50,19.91 24.22,23.14
             20.95,26.38 18.43,30.15 16.66,34.44
             14.88,38.73 14.00,43.24 14.00,47.97
             14.00,52.88 14.88,57.47 16.62,61.75
             18.38,66.02 20.94,69.77 24.30,73.02
             27.65,76.27 31.48,78.74 35.78,80.44
             40.08,82.14 44.66,83.00 49.52,83.00
             53.49,83.00 57.41,82.35 61.28,81.06
             65.14,79.78 68.72,77.93 72.00,75.52
             72.00,75.52 67.31,69.00 67.31,69.00
             64.99,71.14 62.18,72.85 58.88,74.11
             55.58,75.37 52.29,76.00 49.00,76.00
             45.16,76.00 41.54,75.32 38.16,73.97
             34.77,72.61 31.77,70.65 29.16,68.08
             26.52,65.45 24.50,62.43 23.09,59.00
             21.70,55.57 21.00,51.90 21.00,47.98
             21.00,43.23 22.08,38.80 24.25,34.72
             26.43,30.64 29.46,27.31 33.34,24.73
             35.72,23.18 38.30,22.01 41.08,21.20
             43.87,20.40 46.79,20.00 49.84,20.00
             54.21,20.00 58.27,20.88 62.02,22.64
             65.77,24.39 68.89,26.89 71.39,30.12
             72.94,32.06 74.10,34.20 74.86,36.52
             75.62,38.84 76.00,41.33 76.00,43.98
             76.00,48.15 75.02,51.57 73.06,54.25
             71.10,56.92 68.41,58.50 65.00,59.00
             65.00,59.00 65.00,32.00 65.00,32.00
             65.00,32.00 56.00,32.00 56.00,32.00
             56.00,32.00 56.00,36.73 56.00,36.73
             55.25,34.93 54.04,33.53 52.38,32.52
             50.71,31.51 48.76,31.00 46.53,31.00
             42.25,31.00 38.75,32.62 36.05,35.88
             33.35,39.12 32.00,43.33 32.00,48.52
             32.00,53.71 33.34,57.93 36.03,61.16
             38.73,64.39 42.23,66.00 46.53,66.00
             48.76,66.00 50.71,65.51 52.38,64.52
             54.04,63.53 55.25,62.14 56.00,60.36
             56.00,60.36 56.00,66.14 56.00,66.14 Z" />
</svg>
