<?xml version="1.0" encoding="UTF-8" standalone="no"?>
<!DOCTYPE svg PUBLIC "-//W3C//DTD SVG 20010904//EN"
              "http://www.w3.org/TR/2001/REC-SVG-20010904/DTD/svg10.dtd">

<svg xmlns="http://www.w3.org/2000/svg"
     width="1.33333in" height="1.33333in"
     viewBox="0 0 96 96">
  <path id="导入的路径 #4"
        fill="black"
        d="M 28.13,13.02
           C 28.13,13.02 28.13,22.61 28.13,22.61
             28.13,22.61 41.57,22.61 41.57,22.61
             41.57,22.61 41.57,13.02 41.57,13.02
             41.57,13.02 28.13,13.02 28.13,13.02 Z
           M 56.91,54.37
           C 56.91,54.37 59.04,54.37 59.04,54.37
             59.04,54.37 59.04,80.02 59.04,80.02
             59.04,81.26 60.04,82.26 61.28,82.26
             61.28,82.26 81.03,82.26 81.03,82.26
             82.27,82.26 83.27,81.26 83.27,80.02
             83.27,80.02 83.27,64.06 83.27,64.06
             83.27,64.06 83.32,61.73 83.32,61.73
             83.32,61.73 74.75,25.61 74.75,25.61
             74.75,25.61 54.44,25.61 54.44,25.61
             54.44,25.61 54.44,52.08 54.44,52.08
             54.44,53.35 55.46,54.37 56.74,54.37M 39.04,54.43
           C 39.04,54.43 36.92,54.43 36.92,54.43
             36.92,54.43 36.92,80.09 36.92,80.09
             36.92,81.32 35.92,82.32 34.67,82.32
             34.67,82.32 14.92,82.32 14.92,82.32
             13.69,82.32 12.68,81.32 12.68,80.09
             12.68,80.09 12.68,64.12 12.68,64.12
             12.68,64.12 12.64,61.77 12.64,61.77
             12.64,61.77 21.22,25.65 21.22,25.65
             21.22,25.65 41.51,25.65 41.51,25.65
             41.51,25.65 41.51,52.14 41.51,52.14
             41.51,53.41 40.48,54.43 39.21,54.43M 44.48,25.65
           C 44.48,25.65 44.48,50.25 44.48,50.25
             44.48,50.25 51.45,50.25 51.45,50.25
             51.45,50.25 51.45,25.65 51.45,25.65
             51.45,25.65 44.48,25.65 44.48,25.65 Z
           M 54.44,13.02
           C 54.44,13.02 54.44,22.61 54.44,22.61
             54.44,22.61 67.89,22.61 67.89,22.61
             67.89,22.61 67.89,13.02 67.89,13.02
             67.89,13.02 54.44,13.02 54.44,13.02 Z" />
</svg>
