<?xml version="1.0" encoding="UTF-8" standalone="no"?>
<!DOCTYPE svg PUBLIC "-//W3C//DTD SVG 20010904//EN"
              "http://www.w3.org/TR/2001/REC-SVG-20010904/DTD/svg10.dtd">

<svg xmlns="http://www.w3.org/2000/svg"
     width="1.33333in" height="1.33333in"
     viewBox="0 0 96 96">
  <path id="导入的路径"
        fill="black"
        d="M 48.00,12.00
           C 28.12,12.00 12.00,28.12 12.00,48.00
             12.00,67.88 28.12,84.00 48.00,84.00
             67.88,84.00 84.00,67.88 84.00,48.00
             84.00,28.12 67.88,12.00 48.00,12.00 Z
           M 48.00,19.00
           C 55.73,19.00 62.28,21.45 66.00,25.00
             66.00,25.00 25.00,66.00 25.00,66.00
             21.73,61.91 19.00,53.73 19.00,48.00
             19.00,33.09 32.36,19.00 48.00,19.00 Z
           M 48.00,77.00
           C 40.45,77.00 33.73,74.36 30.00,71.00
             30.00,71.00 71.00,30.00 71.00,30.00
             74.73,34.00 77.00,41.55 77.00,48.00
             77.00,62.82 63.64,77.00 48.00,77.00 Z" />
</svg>
