<?xml version="1.0" encoding="UTF-8" standalone="no"?>
<!DOCTYPE svg PUBLIC "-//W3C//DTD SVG 20010904//EN"
              "http://www.w3.org/TR/2001/REC-SVG-20010904/DTD/svg10.dtd">

<svg xmlns="http://www.w3.org/2000/svg"
     width="1.33333in" height="1.33333in"
     viewBox="0 0 96 96">
  <path id="选区"
        fill="black"
        d="M 84.00,20.00
           C 84.00,20.00 84.00,76.00 84.00,76.00
             84.00,76.00 12.00,76.00 12.00,76.00
             12.00,76.00 12.00,20.00 12.00,20.00
             12.00,20.00 84.00,20.00 84.00,20.00 Z
           M 22.00,30.00
           C 22.00,30.00 22.00,42.00 22.00,42.00
             22.00,42.00 34.00,42.00 34.00,42.00
             34.00,42.00 34.00,30.00 34.00,30.00
             34.00,30.00 22.00,30.00 22.00,30.00 Z
           M 37.00,32.00
           C 37.00,32.00 37.00,35.00 37.00,35.00
             37.00,35.00 62.00,35.00 62.00,35.00
             62.00,35.00 62.00,32.00 62.00,32.00
             62.00,32.00 37.00,32.00 37.00,32.00 Z
           M 67.00,32.00
           C 67.00,32.00 67.00,35.00 67.00,35.00
             67.00,35.00 73.00,35.00 73.00,35.00
             73.00,35.00 73.00,32.00 73.00,32.00
             73.00,32.00 67.00,32.00 67.00,32.00 Z
           M 37.00,37.00
           C 37.00,37.00 37.00,40.00 37.00,40.00
             37.00,40.00 56.00,40.00 56.00,40.00
             56.00,40.00 56.00,37.00 56.00,37.00
             56.00,37.00 37.00,37.00 37.00,37.00 Z
           M 22.00,47.00
           C 22.00,47.00 22.00,51.00 22.00,51.00
             22.00,51.00 73.00,51.00 73.00,51.00
             73.00,51.00 73.00,47.00 73.00,47.00
             73.00,47.00 22.00,47.00 22.00,47.00 Z
           M 22.00,54.00
           C 22.00,54.00 22.00,58.00 22.00,58.00
             22.00,58.00 73.00,58.00 73.00,58.00
             73.00,58.00 73.00,54.00 73.00,54.00
             73.00,54.00 22.00,54.00 22.00,54.00 Z
           M 22.00,61.00
           C 22.00,61.00 22.00,65.00 22.00,65.00
             22.00,65.00 59.00,65.00 59.00,65.00
             59.00,65.00 59.00,61.00 59.00,61.00
             59.00,61.00 22.00,61.00 22.00,61.00 Z" />
</svg>
