<?xml version="1.0" encoding="UTF-8" standalone="no"?>
<!DOCTYPE svg PUBLIC "-//W3C//DTD SVG 20010904//EN"
              "http://www.w3.org/TR/2001/REC-SVG-20010904/DTD/svg10.dtd">

<svg xmlns="http://www.w3.org/2000/svg"
     width="1.33333in" height="1.33333in"
     viewBox="0 0 96 96">
  <path id="未命名"
        fill="black"
        d="M 69.00,20.00
           C 69.00,20.00 69.00,23.00 69.00,23.00
             69.00,23.00 23.00,23.00 23.00,23.00
             23.00,23.00 23.00,74.00 23.00,74.00
             23.00,74.00 74.00,74.00 74.00,74.00
             74.00,74.00 74.00,44.00 74.00,44.00
             74.00,44.00 77.00,44.00 77.00,44.00
             77.00,44.00 77.00,77.00 77.00,77.00
             77.00,77.00 20.00,77.00 20.00,77.00
             20.00,77.00 20.00,20.00 20.00,20.00
             20.00,20.00 69.00,20.00 69.00,20.00 Z
           M 38.00,38.00
           C 38.00,38.00 49.00,48.00 49.00,48.00
             49.00,48.00 80.00,18.00 80.00,18.00
             80.00,18.00 87.00,25.00 87.00,25.00
             87.00,25.00 49.00,63.00 49.00,63.00
             49.00,63.00 31.00,45.00 31.00,45.00
             31.00,45.00 38.00,38.00 38.00,38.00 Z" />
</svg>
