<?xml version="1.0" encoding="UTF-8" standalone="no"?>
<!DOCTYPE svg PUBLIC "-//W3C//DTD SVG 20010904//EN"
              "http://www.w3.org/TR/2001/REC-SVG-20010904/DTD/svg10.dtd">

<svg xmlns="http://www.w3.org/2000/svg"
     width="3.55574in" height="3.55574in"
     viewBox="0 0 512 512">
  <path id="未命名 #2"
        fill="black"
        d="M 324.24,318.81
           C 324.24,318.81 323.98,328.96 323.98,328.96
             324.24,332.42 317.82,344.62 312.63,346.82
             323.84,401.16 267.24,413.68 240.56,373.36
             204.86,376.95 174.12,359.13 175.34,347.64
             178.82,345.02 181.26,340.75 182.53,338.14
             196.66,339.17 218.17,337.43 225.61,305.33
             228.95,288.32 268.50,265.79 281.00,269.47
             258.06,223.93 292.30,208.18 304.63,153.74
             315.06,111.50 260.21,51.90 173.13,95.88
             -67.61,262.28 135.53,524.88 344.70,397.18
             379.20,373.13 363.28,311.75 342.22,308.16
             340.16,311.88 326.55,321.90 324.24,318.81 Z
           M 187.79,349.62
           C 227.08,374.83 309.46,364.00 313.32,322.54
             287.51,324.21 274.54,294.93 275.57,282.86
             256.78,283.32 236.21,297.57 234.74,312.45
             229.51,334.12 213.08,351.30 187.79,349.62 Z
           M 293.92,266.82
           C 270.44,285.96 300.93,327.53 331.13,302.93
             331.13,302.93 434.79,187.89 434.79,187.89
             462.87,161.36 438.90,134.29 408.83,162.86
             408.83,162.86 293.92,266.82 293.92,266.82 Z
           M 174.32,299.10
           C 192.85,317.63 182.90,350.08 157.04,354.93
             124.54,361.02 105.16,321.37 127.43,299.10
             132.17,294.36 138.28,291.66 144.71,290.15
             155.58,288.63 166.34,291.13 174.32,299.10 Z
           M 168.34,197.22
           C 191.52,208.92 188.27,246.11 160.12,251.19
             131.09,256.43 114.68,220.65 135.50,201.52
             140.17,197.23 143.84,195.96 149.85,194.62
             156.20,193.74 162.52,194.29 168.34,197.22 Z
           M 235.12,144.00
           C 256.59,153.92 253.06,185.52 229.98,190.53
             209.40,195.00 192.69,172.26 203.50,154.08
             207.36,147.58 212.60,144.25 219.71,142.29
             225.29,141.40 229.89,141.59 235.12,144.00 Z" />
</svg>
