<?xml version="1.0" encoding="UTF-8" standalone="no"?>
<!DOCTYPE svg PUBLIC "-//W3C//DTD SVG 20010904//EN"
              "http://www.w3.org/TR/2001/REC-SVG-20010904/DTD/svg10.dtd">

<svg xmlns="http://www.w3.org/2000/svg"
     width="1.06667in" height="1.06667in"
     viewBox="0 0 96 96">
  <path id="选区 #1"
        fill="black"
        d="M 84.00,12.00
           C 84.00,12.00 84.00,84.00 84.00,84.00
             84.00,84.00 12.00,84.00 12.00,84.00
             12.00,84.00 12.00,12.00 12.00,12.00
             12.00,12.00 84.00,12.00 84.00,12.00 Z
           M 17.52,27.27
           C 17.52,27.27 26.67,35.69 26.67,35.69
             26.67,35.69 34.35,27.27 34.35,27.27
             34.35,27.27 17.52,27.27 17.52,27.27 Z
           M 27.25,36.46
           C 27.25,36.46 36.25,44.36 36.25,44.36
             36.25,44.36 44.15,35.56 44.15,35.56
             44.15,35.56 35.35,27.66 35.35,27.66
             35.35,27.66 27.25,36.46 27.25,36.46 Z
           M 27.37,53.81
           C 27.37,53.81 35.37,45.09 35.37,45.09
             35.37,45.09 26.75,37.09 26.75,37.09
             26.75,37.09 27.37,53.81 27.37,53.81 Z
           M 41.04,41.19
           C 41.04,41.19 41.86,68.20 41.86,68.20
             41.86,68.20 69.14,67.39 69.14,67.39
             69.14,67.39 41.04,41.19 41.04,41.19 Z
           M 40.15,41.13
           C 40.15,41.13 27.05,55.18 27.05,55.18
             27.05,55.18 41.24,67.95 41.24,67.95
             41.24,67.95 40.15,41.13 40.15,41.13 Z
           M 61.64,57.55
           C 61.64,57.55 79.14,36.85 79.14,36.85
             79.14,36.85 40.70,40.25 40.70,40.25
             40.70,40.25 61.64,57.55 61.64,57.55 Z" />
</svg>
