<?xml version="1.0" encoding="UTF-8" standalone="no"?>
<!DOCTYPE svg PUBLIC "-//W3C//DTD SVG 20010904//EN"
              "http://www.w3.org/TR/2001/REC-SVG-20010904/DTD/svg10.dtd">

<svg xmlns="http://www.w3.org/2000/svg"
     width="1.33333in" height="1.33333in"
     viewBox="0 0 96 96">
  <path id="选区"
        fill="black"
        d="M 51.00,14.00
           C 53.17,14.04 56.00,14.00 56.00,14.00
             56.00,14.00 72.00,30.00 72.00,30.00
             72.00,30.00 72.00,46.00 72.00,46.00
             72.00,46.00 48.00,58.00 48.00,58.00
             48.00,58.00 24.00,46.00 24.00,46.00
             24.00,46.00 24.00,14.00 24.00,14.00
             24.00,14.00 51.00,14.00 51.00,14.00 Z
           M 56.00,29.00
           C 56.00,29.00 64.00,29.00 64.00,29.00
             64.00,29.00 56.00,21.00 56.00,21.00
             56.00,21.00 56.00,29.00 56.00,29.00 Z
           M 48.00,62.00
           C 48.00,62.00 81.00,46.00 81.00,46.00
             81.00,46.00 81.00,80.00 81.00,80.00
             81.00,80.00 15.00,80.00 15.00,80.00
             15.00,80.00 15.00,46.00 15.00,46.00
             15.00,46.00 48.00,62.00 48.00,62.00 Z" />
</svg>
