<?xml version="1.0" encoding="UTF-8" standalone="no"?>
<!DOCTYPE svg PUBLIC "-//W3C//DTD SVG 20010904//EN"
              "http://www.w3.org/TR/2001/REC-SVG-20010904/DTD/svg10.dtd">

<svg xmlns="http://www.w3.org/2000/svg"
     width="1.33333in" height="1.33333in"
     viewBox="0 0 96 96">
  <path id="polygon3"
        fill="black"
        d="M 46.39,64.52
           C 46.39,64.52 71.93,38.98 71.93,38.98
             71.93,38.98 83.93,50.98 83.93,50.98
             83.93,50.98 84.04,12.00 84.04,12.00
             84.04,12.00 45.43,12.00 45.43,12.00
             45.43,12.00 57.56,24.62 57.56,24.62
             57.56,24.62 32.02,50.15 32.02,50.15
             32.02,50.15 46.39,64.52 46.39,64.52 Z
           M 59.00,61.00
           C 59.00,61.00 59.00,77.00 59.00,77.00
             59.00,77.00 19.00,77.00 19.00,77.00
             19.00,77.00 19.00,36.00 19.00,36.00
             19.00,36.00 37.00,36.00 37.00,36.00
             37.00,36.00 44.00,29.00 44.00,29.00
             44.00,29.00 12.00,29.00 12.00,29.00
             12.00,29.00 12.00,84.00 12.00,84.00
             12.00,84.00 66.00,84.00 66.00,84.00
             66.00,84.00 66.00,54.00 66.00,54.00
             66.00,54.00 59.00,61.00 59.00,61.00 Z" />
</svg>
