<?xml version="1.0" encoding="UTF-8" standalone="no"?>
<!DOCTYPE svg PUBLIC "-//W3C//DTD SVG 20010904//EN"
              "http://www.w3.org/TR/2001/REC-SVG-20010904/DTD/svg10.dtd">

<svg xmlns="http://www.w3.org/2000/svg"
     width="1.33333in" height="1.33333in"
     viewBox="0 0 96 96">
  <path id="未命名"
        fill="black"
        d="M 12.00,30.00
           C 12.00,30.00 32.00,30.00 32.00,30.00
             18.00,6.88 62.62,5.12 47.82,30.00
             47.82,30.00 66.00,30.00 66.00,30.00
             66.00,30.00 66.00,47.88 66.00,47.88
             90.50,36.00 89.00,76.50 66.00,63.12
             66.00,63.12 66.00,84.00 66.00,84.00
             66.00,84.00 47.75,84.00 47.75,84.00
             61.09,60.91 20.22,60.18 33.55,84.00
             33.55,84.00 12.00,84.00 12.00,84.00
             12.00,84.00 12.00,60.57 12.00,60.57
             34.73,72.02 36.91,35.30 12.00,45.75
             12.00,45.75 12.00,30.00 12.00,30.00 Z" />
</svg>
