<?xml version="1.0" encoding="UTF-8" standalone="no"?>
<!DOCTYPE svg PUBLIC "-//W3C//DTD SVG 20010904//EN"
              "http://www.w3.org/TR/2001/REC-SVG-20010904/DTD/svg10.dtd">

<svg xmlns="http://www.w3.org/2000/svg"
     width="1.33333in" height="1.33333in"
     viewBox="0 0 96 96">
  <path id="#"
        fill="black"
        d="M 39.81,15.00
           C 39.81,15.00 35.47,32.00 35.47,32.00
             35.47,32.00 20.20,32.00 20.20,32.00
             20.20,32.00 20.20,42.00 20.20,42.00
             20.20,42.00 32.98,42.00 32.98,42.00
             32.98,42.00 29.83,54.00 29.83,54.00
             29.83,54.00 15.00,54.00 15.00,54.00
             15.00,54.00 15.00,64.00 15.00,64.00
             15.00,64.00 27.61,64.00 27.61,64.00
             27.61,64.00 23.27,81.00 23.27,81.00
             23.27,81.00 33.36,81.00 33.36,81.00
             33.36,81.00 37.69,64.00 37.69,64.00
             37.69,64.00 49.62,64.00 49.62,64.00
             49.62,64.00 45.28,81.00 45.28,81.00
             45.28,81.00 55.28,81.00 55.28,81.00
             55.28,81.00 59.61,64.00 59.61,64.00
             59.61,64.00 74.80,64.00 74.80,64.00
             74.80,64.00 74.80,54.00 74.80,54.00
             74.80,54.00 61.97,54.00 61.97,54.00
             61.97,54.00 65.08,42.00 65.08,42.00
             65.08,42.00 80.00,42.00 80.00,42.00
             80.00,42.00 80.00,32.00 80.00,32.00
             80.00,32.00 67.48,32.00 67.48,32.00
             67.48,32.00 71.86,15.00 71.86,15.00
             71.86,15.00 61.88,15.00 61.88,15.00
             61.88,15.00 57.48,32.00 57.48,32.00
             57.48,32.00 45.56,32.00 45.56,32.00
             45.56,32.00 49.89,15.00 49.89,15.00
             49.89,15.00 39.81,15.00 39.81,15.00 Z
           M 51.84,54.00
           C 51.84,54.00 39.91,54.00 39.91,54.00
             39.91,54.00 43.06,42.00 43.06,42.00
             43.06,42.00 55.00,42.00 55.00,42.00
             55.00,42.00 51.84,54.00 51.84,54.00 Z" />
</svg>
