<?xml version="1.0" encoding="UTF-8" standalone="no"?>
<!DOCTYPE svg PUBLIC "-//W3C//DTD SVG 20010904//EN"
              "http://www.w3.org/TR/2001/REC-SVG-20010904/DTD/svg10.dtd">

<svg xmlns="http://www.w3.org/2000/svg"
     width="1.33333in" height="1.33333in"
     viewBox="0 0 96 96">
  <path id="♥"
        fill="black"
        d="M 54.78,21.19
           C 53.26,22.20 51.94,23.34 50.81,24.61
             49.69,25.88 48.78,27.33 48.09,28.95
             46.46,25.59 44.14,22.96 41.16,21.06
             38.14,19.15 34.88,18.19 31.36,18.19
             29.75,18.19 28.18,18.40 26.64,18.81
             25.11,19.22 23.62,19.85 22.19,20.70
             19.30,22.38 17.05,24.59 15.42,27.34
             13.82,30.15 13.02,33.18 13.02,36.44
             13.02,39.94 13.76,43.48 15.25,47.08
             16.75,50.66 19.04,54.31 22.11,58.02
             28.21,65.46 36.62,72.39 47.33,78.80
             47.46,78.93 47.72,79.00 48.09,79.00
             48.47,79.00 48.72,78.93 48.84,78.80
             59.50,72.42 67.86,65.52 73.92,58.09
             80.02,50.68 83.08,43.46 83.08,36.44
             83.08,34.84 82.87,33.27 82.45,31.73
             82.05,30.20 81.45,28.76 80.67,27.39
             79.90,26.03 78.95,24.78 77.83,23.64
             76.71,22.51 75.44,21.53 74.00,20.70
             71.06,19.03 67.99,18.19 64.78,18.19
             61.10,18.19 57.77,19.19 54.78,21.19 Z" />
</svg>
