<?xml version="1.0" encoding="UTF-8" standalone="no"?>
<!DOCTYPE svg PUBLIC "-//W3C//DTD SVG 20010904//EN"
              "http://www.w3.org/TR/2001/REC-SVG-20010904/DTD/svg10.dtd">

<svg xmlns="http://www.w3.org/2000/svg"
     width="1.33333in" height="1.33333in"
     viewBox="0 0 96 96">
  <path id="未命名 #5"
        fill="black"
        d="M 48.00,19.00
           C 48.00,19.00 6.00,52.00 6.00,52.00
             6.00,52.00 10.00,57.00 10.00,57.00
             10.00,57.00 48.00,27.00 48.00,27.00
             48.00,27.00 86.00,57.00 86.00,57.00
             86.00,57.00 90.00,52.00 90.00,52.00
             90.00,52.00 48.00,19.00 48.00,19.00 Z
           M 48.00,33.00
           C 48.00,33.00 18.00,56.00 18.00,56.00
             18.00,56.00 18.00,78.00 18.00,78.00
             18.00,78.00 78.00,78.00 78.00,78.00
             78.00,78.00 78.00,56.00 78.00,56.00
             78.00,56.00 48.00,33.00 48.00,33.00 Z" />
</svg>
