<?xml version="1.0" encoding="UTF-8" standalone="no"?>
<!DOCTYPE svg PUBLIC "-//W3C//DTD SVG 20010904//EN"
              "http://www.w3.org/TR/2001/REC-SVG-20010904/DTD/svg10.dtd">

<svg xmlns="http://www.w3.org/2000/svg"
     width="1.33333in" height="1.33333in"
     viewBox="0 0 96 96">
  <path id="polygon3 #1"
        fill="black"
        d="M 34.08,24.62
           C 34.08,24.62 45.39,35.92 45.39,35.92
             45.39,35.92 69.43,11.87 69.43,11.87
             69.43,11.87 82.96,25.40 82.96,25.40
             82.96,25.40 58.91,49.44 58.91,49.44
             58.91,49.44 70.21,60.74 70.21,60.74
             70.21,60.74 34.08,60.74 34.08,60.74
             34.08,60.74 34.08,24.62 34.08,24.62 Z
           M 59.00,67.00
           C 59.00,67.00 66.00,67.00 66.00,67.00
             66.00,67.00 66.00,84.00 66.00,84.00
             66.00,84.00 12.00,84.00 12.00,84.00
             12.00,84.00 12.00,29.00 12.00,29.00
             12.00,29.00 28.00,29.00 28.00,29.00
             28.00,29.00 28.00,36.00 28.00,36.00
             28.00,36.00 19.00,36.00 19.00,36.00
             19.00,36.00 19.00,77.00 19.00,77.00
             19.00,77.00 59.00,77.00 59.00,77.00
             59.00,77.00 59.00,67.00 59.00,67.00 Z" />
</svg>
