<?xml version="1.0" encoding="UTF-8" standalone="no"?>
<!DOCTYPE svg PUBLIC "-//W3C//DTD SVG 20010904//EN"
              "http://www.w3.org/TR/2001/REC-SVG-20010904/DTD/svg10.dtd">

<svg xmlns="http://www.w3.org/2000/svg"
     width="1.33333in" height="1.33333in"
     viewBox="0 0 96 96">
  <path id="选区"
        fill="black"
        d="M 84.00,12.00
           C 84.00,12.00 84.00,84.00 84.00,84.00
             84.00,84.00 12.00,84.00 12.00,84.00
             12.00,84.00 12.00,12.00 12.00,12.00
             12.00,12.00 84.00,12.00 84.00,12.00 Z
           M 17.00,17.00
           C 17.00,17.00 17.00,79.00 17.00,79.00
             17.00,79.00 79.00,79.00 79.00,79.00
             79.00,79.00 79.00,17.00 79.00,17.00
             79.00,17.00 17.00,17.00 17.00,17.00 Z
           M 45.00,22.00
           C 45.00,22.00 45.00,74.00 45.00,74.00
             45.00,74.00 22.00,74.00 22.00,74.00
             22.00,74.00 22.00,22.00 22.00,22.00
             22.00,22.00 45.00,22.00 45.00,22.00 Z
           M 74.00,22.00
           C 74.00,22.00 74.00,45.00 74.00,45.00
             74.00,45.00 51.00,45.00 51.00,45.00
             51.00,45.00 51.00,22.00 51.00,22.00
             51.00,22.00 74.00,22.00 74.00,22.00 Z
           M 74.00,51.00
           C 74.00,51.00 74.00,74.00 74.00,74.00
             74.00,74.00 51.00,74.00 51.00,74.00
             51.00,74.00 51.00,51.00 51.00,51.00
             51.00,51.00 74.00,51.00 74.00,51.00 Z" />
</svg>
