<?xml version="1.0" encoding="UTF-8" standalone="no"?>
<!DOCTYPE svg PUBLIC "-//W3C//DTD SVG 20010904//EN"
              "http://www.w3.org/TR/2001/REC-SVG-20010904/DTD/svg10.dtd">

<svg xmlns="http://www.w3.org/2000/svg"
     width="1.33333in" height="1.33333in"
     viewBox="0 0 96 96">
  <path id="ðŸ±"
        fill="black"
        d="M 62.38,60.97
           C 61.84,60.66 61.38,60.24 61.00,59.72
             60.61,59.20 60.31,58.62 60.09,57.97
             59.88,57.31 59.78,56.62 59.78,55.89
             59.78,55.12 59.89,54.40 60.12,53.72
             60.35,53.03 60.66,52.45 61.06,51.95
             61.46,51.46 61.91,51.07 62.44,50.78
             62.96,50.48 63.52,50.33 64.14,50.33
             64.73,50.33 65.30,50.48 65.83,50.78
             66.36,51.07 66.82,51.46 67.20,51.95
             67.59,52.45 67.89,53.03 68.12,53.72
             68.35,54.40 68.47,55.12 68.47,55.89
             68.47,56.67 68.35,57.40 68.12,58.06
             67.89,58.73 67.58,59.31 67.19,59.81
             66.79,60.30 66.33,60.70 65.81,60.98
             65.29,61.28 64.73,61.42 64.14,61.42
             63.50,61.42 62.91,61.27 62.38,60.97 Z
           M 29.77,60.98
           C 29.24,60.70 28.79,60.30 28.39,59.81
             27.99,59.31 27.68,58.73 27.45,58.06
             27.22,57.40 27.11,56.67 27.11,55.89
             27.11,55.12 27.22,54.40 27.45,53.72
             27.68,53.03 27.99,52.45 28.38,51.95
             28.76,51.46 29.21,51.07 29.73,50.78
             30.25,50.48 30.82,50.33 31.44,50.33
             32.05,50.33 32.62,50.48 33.16,50.78
             33.69,51.07 34.15,51.46 34.55,51.95
             34.95,52.45 35.27,53.03 35.50,53.72
             35.73,54.40 35.84,55.12 35.84,55.89
             35.84,56.62 35.73,57.32 35.50,57.98
             35.27,58.65 34.95,59.24 34.55,59.75
             34.15,60.25 33.69,60.66 33.16,60.97
             32.62,61.27 32.05,61.42 31.44,61.42
             30.84,61.42 30.29,61.28 29.77,60.98 Z
           M 57.39,69.02
           C 57.19,69.30 56.90,69.59 56.52,69.91
             56.13,70.21 55.65,70.48 55.08,70.72
             54.50,70.96 53.86,71.13 53.14,71.23
             53.14,71.23 52.94,72.08 52.94,72.08
             52.64,73.28 52.33,74.27 52.00,75.06
             51.66,75.84 51.30,76.48 50.89,76.95
             50.49,77.43 50.06,77.78 49.59,77.98
             49.12,78.18 48.61,78.28 48.05,78.28
             46.52,78.28 45.35,77.59 44.53,76.20
             44.12,75.54 43.61,74.15 43.00,72.03
             43.00,72.03 42.56,71.16 42.56,71.16
             41.74,71.11 40.79,70.80 39.72,70.23
             38.66,69.64 38.12,69.00 38.12,68.31
             38.12,67.84 38.31,67.59 38.69,67.59
             38.69,67.59 39.33,67.88 39.33,67.88
             40.73,68.73 42.00,69.16 43.12,69.16
             44.01,69.16 44.81,68.93 45.53,68.48
             46.25,68.03 46.61,67.31 46.61,66.34
             46.61,66.34 46.61,65.75 46.61,65.75
             45.19,64.98 44.48,64.11 44.48,63.14
             44.48,62.29 44.74,61.67 45.27,61.28
             45.79,60.90 46.71,60.70 48.05,60.70
             49.38,60.70 50.31,60.90 50.84,61.28
             51.38,61.67 51.66,62.29 51.66,63.14
             51.66,63.79 51.40,64.35 50.89,64.83
             50.38,65.31 49.82,65.66 49.20,65.88
             49.20,65.88 49.20,66.34 49.20,66.34
             49.20,67.31 49.55,68.03 50.27,68.48
             50.97,68.93 51.78,69.16 52.69,69.16
             53.81,69.16 55.08,68.73 56.50,67.88
             56.50,67.88 57.09,67.59 57.09,67.59
             57.50,67.59 57.70,67.84 57.70,68.31
             57.70,68.50 57.60,68.73 57.39,69.02 Z
           M 79.03,35.20
           C 79.14,33.20 79.20,31.19 79.20,29.19
             79.20,23.64 78.70,19.44 77.70,16.59
             76.70,13.75 75.27,12.33 73.39,12.33
             72.77,12.33 72.09,12.48 71.34,12.78
             70.60,13.07 69.81,13.48 68.97,13.98
             68.12,14.48 67.25,15.09 66.34,15.78
             65.44,16.47 64.53,17.21 63.62,18.02
             61.83,19.57 58.98,22.57 55.06,27.03
             53.85,26.81 52.68,26.67 51.55,26.59
             50.41,26.51 49.24,26.47 48.05,26.47
             46.85,26.47 45.68,26.51 44.55,26.59
             43.41,26.67 42.24,26.81 41.05,27.03
             41.05,27.03 38.92,24.59 38.92,24.59
             37.18,22.67 35.52,20.95 33.92,19.42
             32.34,17.90 30.85,16.62 29.47,15.56
             28.08,14.51 26.80,13.71 25.64,13.16
             24.48,12.61 23.48,12.33 22.62,12.33
             20.78,12.33 19.36,13.75 18.38,16.59
             17.39,19.44 16.91,23.61 16.91,29.11
             16.91,30.90 16.96,32.81 17.06,34.83
             17.16,36.84 17.34,38.98 17.58,41.25
             14.38,46.26 12.78,51.70 12.78,57.58
             12.78,61.88 13.59,65.65 15.20,68.88
             16.82,72.11 19.33,74.84 22.75,77.08
             26.19,79.30 30.12,80.93 34.56,81.97
             36.85,82.50 39.09,82.89 41.27,83.14
             43.44,83.40 45.61,83.52 47.77,83.48
             49.85,83.46 51.96,83.34 54.09,83.12
             56.23,82.91 58.41,82.58 60.66,82.12
             65.06,81.24 69.08,79.69 72.72,77.48
             76.32,75.23 78.99,72.49 80.72,69.25
             82.46,66.01 83.33,62.12 83.33,57.58
             83.33,51.70 81.74,46.26 78.56,41.25
             78.77,39.22 78.93,37.20 79.03,35.20 Z" />
</svg>
