<?xml version="1.0" encoding="UTF-8" standalone="no"?>
<!DOCTYPE svg PUBLIC "-//W3C//DTD SVG 20010904//EN"
              "http://www.w3.org/TR/2001/REC-SVG-20010904/DTD/svg10.dtd">

<svg xmlns="http://www.w3.org/2000/svg"
     width="1.33333in" height="1.33333in"
     viewBox="0 0 96 96">
  <path id="选区"
        fill="black"
        d="M 27.29,69.31
           C 27.17,69.06 26.82,68.85 26.60,68.70
             26.60,68.70 25.20,67.71 25.20,67.71
             23.69,66.56 22.52,65.47 21.20,64.10
             17.34,60.06 14.68,54.39 14.29,48.80
             14.29,48.80 14.20,47.80 14.20,47.80
             14.17,44.91 14.45,42.37 15.33,39.60
             16.11,37.18 17.38,34.66 18.86,32.60
             29.26,18.05 51.09,15.11 66.30,23.33
             73.75,27.36 79.81,34.28 81.24,42.80
             81.41,43.83 81.59,44.96 81.60,46.00
             81.63,48.92 81.34,51.51 80.43,54.30
             79.62,56.79 78.39,59.17 76.87,61.30
             74.20,65.05 70.78,67.91 66.80,70.18
             61.93,72.96 56.00,74.66 50.40,74.90
             50.40,74.90 49.10,75.00 49.10,75.00
             46.54,75.00 44.13,74.92 41.60,74.51
             41.60,74.51 39.20,74.06 39.20,74.06
             38.88,73.99 38.30,73.79 38.00,73.88
             37.72,73.97 25.46,84.89 24.80,85.20
             24.80,85.20 27.42,69.58 27.29,69.31 Z
           M 44.90,29.30
           C 44.90,29.30 46.10,52.40 46.10,52.40
             46.10,52.40 50.60,52.40 50.60,52.40
             50.60,52.40 51.70,29.30 51.70,29.30
             51.70,29.30 44.90,29.30 44.90,29.30 Z
           M 45.82,59.40
           C 43.77,61.68 45.31,65.38 48.40,65.50
             51.83,65.63 53.53,61.39 51.00,59.12
             50.66,58.82 50.23,58.56 49.80,58.41
             49.24,58.22 48.68,58.17 48.10,58.23
             47.16,58.38 46.47,58.68 45.82,59.40 Z" />
</svg>
