<?xml version="1.0" encoding="UTF-8" standalone="no"?>
<!DOCTYPE svg PUBLIC "-//W3C//DTD SVG 20010904//EN"
              "http://www.w3.org/TR/2001/REC-SVG-20010904/DTD/svg10.dtd">

<svg xmlns="http://www.w3.org/2000/svg"
     width="64" height="64"
     viewBox="0 0 64 64">
  <path id="“”副本"
        fill="black"
        d="M 12.82,31.84
           C 14.05,31.84 15.17,31.35 16.16,30.36
             17.24,29.33 17.78,28.15 17.78,26.81
             17.78,25.57 17.24,24.38 16.14,23.25
             15.19,22.31 14.07,21.84 12.78,21.84
             12.78,21.25 13.08,20.25 13.67,18.86
             14.32,17.46 15.64,16.26 17.63,15.26
             17.63,15.26 16.14,13.25 16.14,13.25
             12.80,15.18 10.49,17.27 9.22,19.50
             8.26,21.28 7.78,23.43 7.78,25.97
             7.78,26.17 7.78,26.44 7.78,26.79
             7.78,28.18 8.25,29.35 9.19,30.29
             10.23,31.33 11.44,31.84 12.82,31.84 Z
           M 25.83,32.09
           C 27.07,32.09 28.18,31.60 29.17,30.61
             30.26,29.58 30.80,28.40 30.80,27.06
             30.80,25.82 30.25,24.64 29.16,23.50
             28.21,22.56 27.09,22.09 25.80,22.09
             25.80,21.50 26.10,20.51 26.69,19.11
             27.33,17.72 28.65,16.52 30.64,15.52
             30.64,15.52 29.16,13.50 29.16,13.50
             25.81,15.44 23.51,17.52 22.24,19.75
             21.28,21.53 20.80,23.69 20.80,26.22
             20.80,26.42 20.80,26.70 20.80,27.05
             20.80,28.43 21.27,29.60 22.20,30.55
             23.24,31.58 24.45,32.09 25.83,32.09 Z
           M 55.69,33.66
           C 54.63,32.69 53.37,32.21 51.91,32.21
             50.49,32.21 49.20,32.74 48.02,33.80
             46.97,34.92 46.44,36.21 46.44,37.68
             46.44,39.19 46.95,40.47 47.96,41.53
             49.07,42.65 50.39,43.21 51.91,43.21
             51.91,43.71 51.61,44.63 51.00,45.97
             50.23,47.21 48.89,48.33 46.97,49.33
             46.97,49.33 48.49,51.43 48.49,51.43
             51.91,49.43 54.34,47.29 55.77,45.02
             56.74,43.17 57.22,40.98 57.22,38.47
             57.37,38.16 57.44,37.89 57.44,37.64
             57.44,36.22 56.86,34.89 55.69,33.66 Z
           M 42.61,33.58
           C 41.55,32.61 40.29,32.12 38.83,32.12
             37.41,32.12 36.12,32.65 34.94,33.72
             33.89,34.83 33.36,36.12 33.36,37.59
             33.36,39.10 33.87,40.39 34.88,41.45
             35.99,42.57 37.31,43.12 38.83,43.12
             38.83,43.62 38.53,44.54 37.93,45.89
             37.15,47.13 35.81,48.25 33.89,49.25
             33.89,49.25 35.41,51.34 35.41,51.34
             38.84,49.34 41.26,47.21 42.69,44.93
             43.66,43.08 44.14,40.90 44.14,38.39
             44.29,38.08 44.36,37.80 44.36,37.56
             44.36,36.13 43.78,34.81 42.61,33.58 Z" />
</svg>
