<?xml version="1.0" encoding="UTF-8" standalone="no"?>
<!DOCTYPE svg PUBLIC "-//W3C//DTD SVG 20010904//EN"
              "http://www.w3.org/TR/2001/REC-SVG-20010904/DTD/svg10.dtd">

<svg xmlns="http://www.w3.org/2000/svg"
     width="7.11022in" height="7.11022in"
     viewBox="0 0 512 512">
  <path id="选区 #5"
        fill="black"
        d="M 244.38,237.89
           C 244.38,237.89 244.98,272.77 244.98,272.77
             244.97,280.37 244.23,287.73 235.45,290.13
             225.00,293.00 219.69,284.03 219.58,274.88
             219.58,274.88 219.58,250.57 219.58,250.57
             219.57,240.82 218.20,233.24 229.10,228.98
             236.15,227.86 242.28,230.59 244.38,237.89 Z
           M 211.66,237.50
           C 211.66,237.50 212.26,272.39 212.26,272.39
             212.25,279.98 211.51,287.34 202.73,289.75
             192.27,292.62 186.97,283.64 186.85,274.50
             186.85,274.50 186.85,250.19 186.85,250.19
             186.85,240.44 185.48,232.85 196.38,228.59
             203.42,227.48 209.56,230.21 211.66,237.50 Z
           M 179.51,237.12
           C 179.51,237.12 180.11,272.00 180.11,272.00
             180.10,279.60 179.37,286.96 170.59,289.37
             160.13,292.23 154.82,283.26 154.71,274.11
             154.71,274.11 154.71,249.80 154.71,249.80
             154.71,240.05 153.33,232.47 164.24,228.21
             171.28,227.09 177.42,229.82 179.51,237.12 Z
           M 145.83,237.50
           C 145.83,237.50 146.43,272.39 146.43,272.39
             146.42,279.98 145.68,287.34 136.90,289.75
             126.45,292.62 121.14,283.64 121.03,274.50
             121.03,274.50 121.03,250.19 121.03,250.19
             121.02,240.44 119.65,232.85 130.55,228.59
             137.60,227.48 143.73,230.21 145.83,237.50 Z
           M 378.65,232.22
           C 387.52,244.73 380.57,263.08 365.57,266.54
             343.63,271.60 328.66,244.98 344.51,229.15
             347.88,225.78 350.53,224.59 354.98,223.26
             364.59,221.69 372.78,223.95 378.65,232.22 Z
           M 162.31,95.85
           C 162.31,95.85 352.87,95.85 352.87,95.85
             352.87,95.85 406.86,178.30 406.86,178.30
             406.86,178.30 101.97,178.30 101.97,178.30
             101.97,178.30 162.31,95.85 162.31,95.85 Z
           M 101.97,208.96
           C 101.97,208.96 406.86,208.96 406.86,208.96
             406.86,208.96 406.86,305.15 406.86,305.15
             406.86,305.15 101.97,305.15 101.97,305.15
             101.97,305.15 101.97,208.96 101.97,208.96 Z
           M 214.32,435.18
           C 153.57,435.18 101.97,435.18 101.97,435.18
             80.80,435.18 80.80,399.24 101.97,399.24
             101.97,399.24 174.67,399.24 213.98,399.24
             228.03,399.29 227.95,435.18 214.32,435.18 Z
           M 295.89,399.24
           C 333.33,399.24 406.86,399.24 406.86,399.24
             433.32,399.24 433.32,435.18 406.86,435.18
             406.86,435.18 295.70,435.18 295.70,435.18
             285.11,435.18 285.11,399.24 295.89,399.24 Z
           M 274.53,394.43
           C 274.53,394.43 274.53,349.26 274.56,338.98
             361.41,338.98 442.85,338.98 442.85,338.98
             442.85,338.98 442.85,178.30 442.85,178.30
             442.85,178.30 370.86,64.14 370.86,64.14
             370.86,64.14 137.96,64.14 137.96,64.14
             137.96,64.14 69.15,178.30 69.15,178.30
             69.15,178.30 69.15,338.98 69.15,338.98
             69.15,338.98 151.35,338.98 238.65,338.98
             238.54,338.98 238.53,390.51 238.53,394.26
             238.53,394.41 238.53,394.24 238.53,394.50
             237.86,395.02 237.17,395.61 236.46,396.26
             215.00,415.95 231.91,452.76 261.82,447.37
             288.94,442.49 293.64,408.70 274.60,394.49
             274.60,394.50 274.57,394.47 274.53,394.43 Z" />
</svg>
