<?xml version="1.0" encoding="UTF-8" standalone="no"?>
<!DOCTYPE svg PUBLIC "-//W3C//DTD SVG 20010904//EN"
              "http://www.w3.org/TR/2001/REC-SVG-20010904/DTD/svg10.dtd">

<svg xmlns="http://www.w3.org/2000/svg"
     width="1.33317in" height="1.33317in"
     viewBox="0 0 96 96">
  <path id="未命名"
        fill="black"
        d="M 12.00,12.00
           C 12.00,12.00 45.00,12.00 45.00,12.00
             45.00,12.00 45.00,60.00 45.00,60.00
             45.00,60.00 12.00,60.00 12.00,60.00
             12.00,60.00 12.00,12.00 12.00,12.00 Z
           M 51.00,12.00
           C 51.00,12.00 84.00,12.00 84.00,12.00
             84.00,12.00 84.00,46.00 84.00,46.00
             84.00,46.00 51.00,46.00 51.00,46.00
             51.00,46.00 51.00,12.00 51.00,12.00 Z
           M 51.00,53.00
           C 51.00,53.00 84.00,53.00 84.00,53.00
             84.00,53.00 84.00,84.00 84.00,84.00
             84.00,84.00 51.00,84.00 51.00,84.00
             51.00,84.00 51.00,53.00 51.00,53.00 Z
           M 45.00,67.00
           C 45.00,67.00 45.00,84.00 45.00,84.00
             45.00,84.00 12.00,84.00 12.00,84.00
             12.00,84.00 12.00,67.00 12.00,67.00
             12.00,67.00 45.00,67.00 45.00,67.00 Z" />
</svg>
