<?xml version="1.0" encoding="UTF-8" standalone="no"?>
<!DOCTYPE svg PUBLIC "-//W3C//DTD SVG 20010904//EN"
              "http://www.w3.org/TR/2001/REC-SVG-20010904/DTD/svg10.dtd">

<svg xmlns="http://www.w3.org/2000/svg"
     width="7.11022in" height="7.11022in"
     viewBox="0 0 512 512">
  <path id="未命名 #1"
        fill="black"
        d="M 473.55,89.52
           C 465.83,89.40 456.47,100.65 464.06,108.48
             466.34,112.28 480.63,116.95 488.85,119.61
             481.77,131.24 433.96,141.85 416.63,134.14
             409.93,130.10 397.79,140.59 403.98,151.08
             406.13,154.37 425.74,168.53 434.97,174.72
             428.40,180.54 363.78,178.47 355.79,172.45
             346.69,169.16 335.30,179.52 341.88,188.50
             341.88,188.50 383.54,217.07 383.54,217.07
             380.00,224.71 322.09,252.52 307.13,253.22
             294.26,244.88 267.65,244.35 250.43,253.22
             230.96,262.95 188.87,300.84 169.04,328.30
             162.78,340.47 147.13,354.03 115.65,363.76
             213.80,207.33 395.59,59.94 511.30,61.33
             510.99,75.24 489.11,88.13 473.55,89.52 Z
           M 231.39,145.33
           C 231.39,145.33 83.64,145.33 83.64,145.33
             78.06,145.33 73.33,145.94 73.33,152.00
             73.33,152.00 73.33,378.50 73.33,378.50
             73.33,382.50 75.57,386.67 79.92,386.67
             79.92,386.67 299.13,386.67 299.13,386.67
             305.33,386.67 305.33,384.48 305.33,381.00
             305.33,381.00 305.33,323.00 305.33,323.00
             312.81,331.17 348.75,318.06 350.67,311.11
             350.67,311.11 350.67,390.67 350.67,390.67
             350.67,409.26 333.22,430.67 312.00,430.67
             312.00,430.67 68.00,430.67 68.00,430.67
             48.52,430.67 28.00,411.18 28.00,390.67
             28.00,390.67 28.00,140.00 28.00,140.00
             28.00,121.92 47.00,102.67 68.00,102.67
             68.00,102.67 268.44,102.67 268.44,102.67
             249.09,118.72 247.41,127.00 231.39,145.33 Z" />
</svg>
