<?xml version="1.0" encoding="UTF-8" standalone="no"?>
<!DOCTYPE svg PUBLIC "-//W3C//DTD SVG 20010904//EN"
              "http://www.w3.org/TR/2001/REC-SVG-20010904/DTD/svg10.dtd">

<svg xmlns="http://www.w3.org/2000/svg"
     width="1.33333in" height="1.33333in"
     viewBox="0 0 96 96">
  <path id="tab"
        fill="black"
        d="M 84.09,31.50
           C 84.09,31.50 84.00,78.00 84.00,78.00
             84.00,78.00 12.00,78.00 12.00,78.00
             12.00,78.00 12.09,33.07 12.09,33.07
             12.09,33.07 22.14,18.00 22.14,18.00
             22.14,18.00 42.54,18.00 42.54,18.00
             42.54,18.00 47.80,25.88 47.80,25.88
             47.80,25.88 53.71,18.00 53.71,18.00
             53.71,18.00 74.04,18.00 74.04,18.00
             74.04,18.00 84.09,31.50 84.09,31.50 Z
           M 79.00,35.00
           C 79.00,35.00 48.38,35.00 48.38,35.00
             48.38,35.00 40.38,23.00 40.38,23.00
             40.38,23.00 25.00,23.00 25.00,23.00
             25.00,23.00 17.00,35.00 17.00,35.00
             17.00,35.00 17.00,73.00 17.00,73.00
             17.00,73.00 79.00,73.00 79.00,73.00
             79.00,73.00 79.00,35.00 79.00,35.00 Z" />
</svg>
