<?xml version="1.0" encoding="UTF-8" standalone="no"?>
<!DOCTYPE svg PUBLIC "-//W3C//DTD SVG 20010904//EN"
              "http://www.w3.org/TR/2001/REC-SVG-20010904/DTD/svg10.dtd">

<svg xmlns="http://www.w3.org/2000/svg"
     width="7.11111in" height="7.11111in"
     viewBox="0 0 512 512">
  <path id="选区 #1"
        fill="black"
        d="M 94.00,94.00
           C 94.00,94.00 94.00,270.25 94.00,270.25
             94.00,270.25 211.00,270.25 211.00,270.25
             211.00,270.25 211.00,246.81 211.00,245.27
             210.26,244.26 206.26,242.77 205.00,242.04
             205.00,242.04 194.50,235.50 194.50,235.50
             191.63,233.60 184.21,227.62 181.00,228.64
             181.00,228.64 169.00,236.75 169.00,236.75
             159.78,242.96 149.15,249.13 139.00,253.65
             134.49,255.65 130.61,258.04 125.50,258.22
             112.89,258.66 105.02,244.35 113.15,234.28
             117.00,229.51 125.21,227.08 130.75,224.31
             140.14,219.62 149.19,214.06 157.75,208.00
             154.61,202.62 151.40,200.45 147.38,196.00
             142.95,191.09 138.83,185.83 135.29,180.25
             132.40,175.68 129.68,171.65 130.07,166.00
             130.52,159.60 133.71,157.61 137.50,153.25
             137.50,153.25 108.25,153.25 108.25,153.25
             108.25,153.25 108.25,122.50 108.25,122.50
             108.25,122.50 166.75,122.50 166.75,122.50
             166.75,122.50 166.75,108.25 166.75,108.25
             166.75,108.25 197.50,108.25 197.50,108.25
             197.50,108.25 197.50,122.50 197.50,122.50
             197.50,122.50 256.00,122.50 256.00,122.50
             256.00,122.50 256.00,153.25 256.00,153.25
             256.00,153.25 239.50,153.25 239.50,153.25
             238.93,159.60 235.85,164.33 232.75,169.75
             227.62,178.72 221.70,187.25 215.15,195.25
             211.96,199.16 207.92,202.64 205.75,207.25
             209.39,209.29 207.39,208.14 211.00,211.00
             211.00,211.00 260.07,211.00 270.25,211.00
             270.25,211.00 270.25,94.00 270.25,94.00
             270.25,94.00 94.00,94.00 94.00,94.00 Z
           M 169.75,153.25
           C 169.75,153.25 151.75,154.00 151.75,154.00
             157.50,157.24 158.74,161.70 162.37,166.75
             167.17,173.44 175.15,183.02 181.75,187.75
             189.70,179.10 202.52,163.83 207.25,153.25
             207.25,153.25 169.75,153.25 169.75,153.25 Z
           M 380.82,357.25
           C 380.82,357.25 357.01,292.75 357.01,292.75
             357.01,292.75 348.44,269.41 348.44,269.41
             345.98,260.88 344.45,261.25 339.25,261.25
             339.25,261.25 319.00,261.25 319.00,261.25
             313.83,261.34 314.22,262.31 311.54,269.50
             311.54,269.50 302.93,292.75 302.93,292.75
             302.93,292.75 276.96,362.50 276.96,362.50
             276.96,362.50 264.25,397.75 264.25,397.75
             264.25,397.75 289.00,397.75 289.00,397.75
             290.53,397.75 293.23,397.94 294.48,397.01
             295.88,395.95 296.92,391.97 297.50,390.25
             297.50,390.25 302.64,375.25 302.64,375.25
             303.33,373.44 304.18,370.35 305.81,369.27
             307.22,368.33 309.84,368.50 311.50,368.50
             311.50,368.50 348.25,368.50 348.25,368.50
             349.91,368.50 352.53,368.33 353.94,369.27
             355.62,370.38 356.38,373.40 357.00,375.25
             357.00,375.25 361.98,389.50 361.98,389.50
             364.70,397.15 363.86,397.71 370.00,397.75
             370.00,397.75 395.50,397.75 395.50,397.75
             395.50,397.75 380.82,357.25 380.82,357.25 Z
           M 347.50,347.50
           C 347.50,347.50 312.25,347.50 312.25,347.50
             312.25,347.50 329.50,298.00 329.50,298.00
             329.50,298.00 347.50,347.50 347.50,347.50 Z
           M 167.50,301.00
           C 167.50,301.00 167.50,344.50 167.50,344.50
             167.50,344.50 211.00,344.50 211.00,344.50
             211.00,344.50 211.00,301.00 211.00,301.00
             211.00,301.00 167.50,301.00 167.50,301.00 Z
           M 211.00,448.00
           C 211.00,448.00 211.00,389.50 211.00,389.50
             211.00,389.50 172.75,389.50 172.75,389.50
             172.75,389.50 122.50,344.53 122.50,344.53
             122.50,344.53 122.50,301.00 122.50,301.00
             122.50,301.00 64.00,301.00 64.00,301.00
             64.00,301.00 64.00,64.00 64.00,64.00
             64.00,64.00 301.00,64.00 301.00,64.00
             301.00,64.00 300.99,90.35 301.00,94.00
             301.00,94.00 301.00,211.00 301.00,211.00
             301.00,211.00 448.00,211.00 448.00,211.00
             448.00,211.00 448.00,448.00 448.00,448.00
             448.00,448.00 211.00,448.00 211.00,448.00 Z" />
</svg>
