<?xml version="1.0" encoding="UTF-8" standalone="no"?>
<!DOCTYPE svg PUBLIC "-//W3C//DTD SVG 20010904//EN"
              "http://www.w3.org/TR/2001/REC-SVG-20010904/DTD/svg10.dtd">

<svg xmlns="http://www.w3.org/2000/svg"
     width="1.33317in" height="1.33317in"
     viewBox="0 0 96 96">
  <path id="未命名 #1"
        fill="black"
        d="M 13.00,61.00
           C 13.00,61.00 39.00,34.00 39.00,34.00
             39.00,34.00 48.00,43.00 48.00,43.00
             48.00,43.00 66.00,25.00 66.00,25.00
             66.00,25.00 57.00,16.00 57.00,16.00
             57.00,16.00 83.00,16.00 83.00,16.00
             83.00,16.00 83.00,42.00 83.00,42.00
             83.00,42.00 75.00,34.00 75.00,34.00
             75.00,34.00 48.00,61.00 48.00,61.00
             48.00,61.00 39.00,52.00 39.00,52.00
             39.00,52.00 22.00,70.00 22.00,70.00
             22.00,70.00 13.00,61.00 13.00,61.00 Z
           M 68.00,47.00
           C 68.00,47.00 74.00,41.00 74.00,41.00
             74.00,41.00 74.00,79.00 74.00,79.00
             74.00,79.00 68.00,79.00 68.00,79.00
             68.00,79.00 68.00,47.00 68.00,47.00 Z
           M 59.00,56.00
           C 59.00,56.00 65.00,50.00 65.00,50.00
             65.00,50.00 65.00,79.00 65.00,79.00
             65.00,79.00 59.00,79.00 59.00,79.00
             59.00,79.00 59.00,56.00 59.00,56.00 Z
           M 41.00,60.00
           C 41.00,60.00 47.00,65.00 47.00,65.00
             47.00,65.00 46.98,79.00 46.98,79.00
             46.98,79.00 41.00,79.00 41.00,79.00
             41.00,79.00 41.00,60.00 41.00,60.00 Z
           M 50.00,79.00
           C 50.00,79.00 56.00,79.00 56.00,79.00
             56.00,79.00 56.13,58.87 56.13,58.87
             56.13,58.87 50.00,65.00 50.00,65.00
             50.00,65.00 50.00,79.00 50.00,79.00 Z
           M 31.00,79.00
           C 31.00,79.00 37.00,79.00 37.00,79.00
             37.00,79.00 37.00,60.00 37.00,60.00
             37.00,60.00 31.00,66.00 31.00,66.00
             31.00,66.00 31.00,79.00 31.00,79.00 Z
           M 28.00,70.00
           C 28.00,70.00 22.00,76.00 22.00,76.00
             22.00,76.00 22.00,79.00 22.00,79.00
             22.00,79.00 28.00,79.00 28.00,79.00
             28.00,79.00 28.00,70.00 28.00,70.00 Z" />
</svg>
