<?xml version="1.0" encoding="UTF-8" standalone="no"?>
<!DOCTYPE svg PUBLIC "-//W3C//DTD SVG 20010904//EN"
              "http://www.w3.org/TR/2001/REC-SVG-20010904/DTD/svg10.dtd">

<svg xmlns="http://www.w3.org/2000/svg"
     width="1.06667in" height="1.06667in"
     viewBox="0 0 96 96">
  <path id="path4"
        fill="black"
        d="M 84.91,24.67
           C 82.26,25.85 79.42,26.64 76.43,27.00
             79.48,25.17 81.82,22.28 82.92,18.83
             80.07,20.52 76.91,21.75 73.55,22.41
             70.86,19.54 67.02,17.75 62.77,17.75
             54.62,17.75 48.01,24.36 48.01,32.51
             48.01,33.67 48.14,34.80 48.40,35.88
             36.13,35.26 25.25,29.39 17.97,20.45
             16.70,22.64 15.97,25.17 15.97,27.88
             15.97,33.00 18.58,37.51 22.54,40.16
             20.12,40.09 17.84,39.42 15.85,38.32
             15.85,38.38 15.85,38.44 15.85,38.50
             15.85,45.65 20.94,51.62 27.69,52.97
             26.45,53.31 25.15,53.49 23.81,53.49
             22.85,53.49 21.93,53.40 21.03,53.23
             22.91,59.09 28.36,63.36 34.82,63.48
             29.76,67.44 23.40,69.80 16.48,69.80
             15.29,69.80 14.12,69.73 12.96,69.59
             19.50,73.78 27.26,76.22 35.59,76.22
             62.74,76.22 77.59,53.73 77.59,34.23
             77.59,33.58 77.57,32.95 77.54,32.31
             80.43,30.23 82.93,27.63 84.91,24.67" />
</svg>
